<svg width="20px" height="20px" viewBox="0 0 20 20" version="1.1" xmlns="http://www.w3.org/2000/svg" xmlns:xlink="http://www.w3.org/1999/xlink">
    <g id="页面-1" stroke="none" stroke-width="1" fill="none" fill-rule="evenodd">
        <g id="最新消息" transform="translate(-20.000000, -190.000000)">
            <g id="编组-10" transform="translate(0.000000, 134.000000)">
                <g id="编组-4备份-2" transform="translate(0.000000, 44.000000)">
                    <g id="编组-3" transform="translate(20.000000, 10.000000)">
                        <g id="编组-74" transform="translate(0.000000, 2.000000)">
                            <rect id="矩形" x="0" y="0" width="20" height="20"></rect>
                            <g id="award-(1)" transform="translate(2.083333, 0.000000)" fill="#000000" opacity="0.25">
                                <path d="M7.91666667,0 C12.2889167,0 15.8333333,3.5444125 15.8333333,7.91666667 C15.8333333,10.9320833 14.1474583,13.55375 11.6668333,14.8905 L11.6666667,18.419375 C11.6666667,18.879625 11.2935833,19.2527083 10.8333333,19.2527083 C10.742,19.2527083 10.6512917,19.2377083 10.5647917,19.2082917 L7.91666667,18.306875 L5.26854167,19.2082917 C4.83283333,19.3565833 4.35941667,19.123625 4.211125,18.6879167 C4.18166667,18.6014583 4.16666667,18.51075 4.16666667,18.419375 L4.16691667,14.8907083 C1.68606667,13.5540417 0,10.93225 0,7.91666667 C0,3.5444125 3.54441667,0 7.91666667,0 Z M10.2083333,15.625 L9.72729167,15.6253333 C9.14579167,15.761375 8.539625,15.8333333 7.91666667,15.8333333 C7.29370833,15.8333333 6.68754167,15.761375 6.10604167,15.6253333 L5.625,15.625 L5.625,17.5464167 L7.91666667,16.766375 L10.2083333,17.5464167 L10.2083333,15.625 Z M1.66666667,7.91666667 C1.66666667,4.464875 4.464875,1.66666667 7.91666667,1.66666667 C11.3684583,1.66666667 14.1666667,4.464875 14.1666667,7.91666667 C14.1666667,11.3684583 11.3684583,14.1666667 7.91666667,14.1666667 C4.464875,14.1666667 1.66666667,11.3684583 1.66666667,7.91666667 Z M7.91666667,4.16666667 C9.98775,4.16666667 11.6666667,5.84558333 11.6666667,7.91666667 C11.6666667,9.98775 9.98775,11.6666667 7.91666667,11.6666667 C5.84558333,11.6666667 4.16666667,9.98775 4.16666667,7.91666667 C4.16666667,5.84558333 5.84558333,4.16666667 7.91666667,4.16666667 Z M5.83333333,7.91666667 C5.83333333,6.76608333 6.76608333,5.83333333 7.91666667,5.83333333 C9.06725,5.83333333 10,6.76608333 10,7.91666667 C10,9.06725 9.06725,10 7.91666667,10 C6.76608333,10 5.83333333,9.06725 5.83333333,7.91666667 Z" id="形状"></path>
                            </g>
                        </g>
                    </g>
                </g>
            </g>
        </g>
    </g>
</svg>