<svg width="32px" height="32px" viewBox="0 0 32 32" version="1.1" xmlns="http://www.w3.org/2000/svg" xmlns:xlink="http://www.w3.org/1999/xlink">
    <g id="页面-1" stroke="none" stroke-width="1" fill="none" fill-rule="evenodd">
        <g id="首页" transform="translate(-1151.000000, -14.000000)">
            <g id="编组-109" transform="translate(1151.000000, 14.000000)">
                <g id="编组-48">
                    <path d="M6,0 L26,0 C29.3137085,-6.08718376e-16 32,2.6862915 32,6 L32,26 C32,29.3137085 29.3137085,32 26,32 L6,32 C2.6862915,32 4.05812251e-16,29.3137085 0,26 L0,6 C-4.05812251e-16,2.6862915 2.6862915,6.08718376e-16 6,0 Z" id="矩形备份-17"></path>
                    <rect id="矩形" x="6" y="6" width="20" height="20"></rect>
                </g>
                <g id="文" transform="translate(7.000000, 8.000000)" fill="#FFFFFF" fill-rule="nonzero" opacity="0.95">
                    <path d="M14.614,5.638 L18.226,15.354 L16.28,15.354 L15.384,12.778 L11.324,12.778 L10.4,15.354 L8.51,15.354 L12.15,5.638 L14.614,5.638 Z M6.566,0 C6.72,0.448 7,1.358 7.182,2.072 L12.124,2.072 L12.124,3.444 L10.066,3.444 C9.492,5.67 8.638,7.378 7.35,8.792 C7.83859351,9.16353465 8.37344267,9.50546567 8.96396426,9.82451932 C8.426,10.854 8.926,9.854 8.08087004,11.0286034 C7.43945439,10.6416243 6.85947688,10.2306009 6.328,9.786 C4.886,11.004 3.066,11.998 0.644,12.95 L0,11.424 C2.296,10.626 3.99,9.786 5.278,8.778 C3.976,7.364 3.108,5.67 2.478,3.444 L0.476,3.444 L0.476,2.072 L5.642,2.072 C5.474,1.414 5.264,0.644 5.11,0.21 Z M13.452,7.276 L13.284,7.276 L11.87,11.238 L14.838,11.238 L13.452,7.276 Z M8.554,3.444 L3.976,3.444 C4.466,5.25 5.18,6.664 6.3,7.84 C7.406,6.664 8.092,5.278 8.554,3.444 Z" id="形状结合"></path>
                </g>
            </g>
        </g>
    </g>
</svg>