<svg width="16px" height="16px" viewBox="0 0 16 16" version="1.1" xmlns="http://www.w3.org/2000/svg" xmlns:xlink="http://www.w3.org/1999/xlink">
    <g id="页面-1" stroke="none" stroke-width="1" fill="none" fill-rule="evenodd" opacity="0.95">
        <g id="7博客详情页备份-4" transform="translate(-475.000000, -1427.000000)" fill="#000000" fill-rule="nonzero">
            <g id="编组-14" transform="translate(325.000000, 1419.000000)">
                <path d="M164.165699,12.9862974 L159.436561,12.9862974 C159.661132,12.1960125 159.774846,11.4937276 159.774846,10.8754425 C159.774846,9.47258694 158.492562,8.12915984 157.265135,8.30744536 C156.18285,8.46458804 155.666279,9.37715847 155.666279,10.5491572 L155.666279,11.6080132 C155.666279,12.9662974 154.626852,14.1245818 153.305139,14.2520103 L151.202856,14.2485817 C150.538537,14.2485817 150,14.7871186 150,15.4514375 L150,22.3971442 C150,23.0617149 150.538285,23.6 151.202856,23.6 L162.849129,23.6 C163.730446,23.6 164.487229,22.9733194 164.651412,22.1074302 L165.967982,15.1617235 C166.06957,14.6250291 165.926683,14.0709817 165.578207,13.650357 C165.22973,13.2297324 164.711923,12.9862967 164.165699,12.9862974 Z M151.142856,22.3971442 L151.142856,15.4514375 C151.142856,15.4182947 151.169713,15.3914376 151.202856,15.3914376 L152.571426,15.3914376 L152.571426,22.4571441 L151.202856,22.4571441 C151.169719,22.4571441 151.142856,22.4302812 151.142856,22.3971442 L151.142856,22.3971442 Z M164.845127,14.9491524 L163.528557,21.894859 C163.466523,22.2211434 163.181258,22.4571441 162.849129,22.4571441 L153.714282,22.4571441 L153.714282,15.3411519 C155.507245,14.9988698 156.805369,13.4327805 156.809135,11.6074417 L156.809135,10.5491572 C156.809135,9.87830078 157.024564,9.49715834 157.429135,9.43887269 C157.911991,9.36858705 158.631991,10.1234434 158.631991,10.876014 C158.631991,11.5422989 158.462276,12.3760123 158.116563,13.3708684 C158.055893,13.5456034 158.083554,13.7388969 158.190796,13.8896029 C158.298038,14.0403089 158.471594,14.1297843 158.656562,14.1297247 L164.165699,14.1297247 C164.371482,14.1297392 164.566565,14.2214142 164.697913,14.3798269 C164.829261,14.5382395 164.883222,14.7469259 164.845127,14.9491524 Z" id="形状" transform="translate(158.000000, 15.945736) scale(1, -1) translate(-158.000000, -15.945736) "></path>
            </g>
        </g>
    </g>
</svg>