<svg width="20px" height="20px" viewBox="0 0 20 20" version="1.1" xmlns="http://www.w3.org/2000/svg" xmlns:xlink="http://www.w3.org/1999/xlink">
    <g id="页面-1" stroke="none" stroke-width="1" fill="none" fill-rule="evenodd">
        <g id="最新消息" transform="translate(-20.000000, -234.000000)">
            <g id="编组-10" transform="translate(0.000000, 134.000000)">
                <g id="编组-4备份-5" transform="translate(0.000000, 88.000000)">
                    <g id="编组-8" transform="translate(20.000000, 10.000000)">
                        <g id="编组-75" transform="translate(0.000000, 2.000000)">
                            <rect id="矩形" x="0" y="0" width="20" height="20"></rect>
                            <g id="clipboard-text" transform="translate(2.500000, 1.250000)" fill="#000000" opacity="0.25">
                                <path d="M11.25,0 C11.71025,0 12.0833333,0.373095833 12.0833333,0.833333333 L12.0833333,1.66666667 L14.1666667,1.66666667 C14.6269167,1.66666667 15,2.0397625 15,2.5 L15,16.6666667 C15,17.1269167 14.6269167,17.5 14.1666667,17.5 L0.833333333,17.5 C0.373095833,17.5 0,17.1269167 0,16.6666667 L0,2.5 C0,2.0397625 0.373095833,1.66666667 0.833333333,1.66666667 L2.91666667,1.66666667 L2.91666667,0.833333333 C2.91666667,0.373095833 3.28975,0 3.75,0 L11.25,0 Z M2.91666667,3.33333333 L1.66666667,3.33333333 L1.66666667,15.8333333 L13.3333333,15.8333333 L13.3333333,3.33333333 L12.0833333,3.33333333 L12.0833333,4.16666667 C12.0833333,4.62691667 11.71025,5 11.25,5 L3.75,5 C3.28975,5 2.91666667,4.62691667 2.91666667,4.16666667 L2.91666667,3.33333333 Z M8.75,10.8333333 C8.980125,10.8333333 9.16666667,11.019875 9.16666667,11.25 L9.16666667,12.0833333 C9.16666667,12.3134583 8.980125,12.5 8.75,12.5 L4.58333333,12.5 C4.35320833,12.5 4.16666667,12.3134583 4.16666667,12.0833333 L4.16666667,11.25 C4.16666667,11.019875 4.35320833,10.8333333 4.58333333,10.8333333 L8.75,10.8333333 Z M10.4166667,7.5 C10.6467917,7.5 10.8333333,7.68654167 10.8333333,7.91666667 L10.8333333,8.75 C10.8333333,8.980125 10.6467917,9.16666667 10.4166667,9.16666667 L4.58333333,9.16666667 C4.35320833,9.16666667 4.16666667,8.980125 4.16666667,8.75 L4.16666667,7.91666667 C4.16666667,7.68654167 4.35320833,7.5 4.58333333,7.5 L10.4166667,7.5 Z M10.4166667,1.66666667 L4.58333333,1.66666667 L4.58333333,3.33333333 L10.4166667,3.33333333 L10.4166667,1.66666667 Z" id="形状"></path>
                            </g>
                        </g>
                    </g>
                </g>
            </g>
        </g>
    </g>
</svg>