<svg width="1165px" height="252px" viewBox="0 0 1165 252" version="1.1" xmlns="http://www.w3.org/2000/svg" xmlns:xlink="http://www.w3.org/1999/xlink">
    <defs>
        <linearGradient x1="2.51195109%" y1="3.97688437%" x2="100%" y2="100%" id="linearGradient-kjfcqduzsr-1">
            <stop stop-color="#FFFFFF" stop-opacity="0.06" offset="0%"></stop>
            <stop stop-color="#FFFFFF" stop-opacity="0.04" offset="100%"></stop>
        </linearGradient>
        <filter x="-22.5%" y="-22.5%" width="145.0%" height="145.0%" filterUnits="objectBoundingBox" id="filter-kjfcqduzsr-2">
            <feOffset dx="0" dy="2" in="SourceAlpha" result="shadowOffsetOuter1"></feOffset>
            <feGaussianBlur stdDeviation="2.5" in="shadowOffsetOuter1" result="shadowBlurOuter1"></feGaussianBlur>
            <feColorMatrix values="0 0 0 0 0   0 0 0 0 0   0 0 0 0 0  0 0 0 0.2 0" type="matrix" in="shadowBlurOuter1" result="shadowMatrixOuter1"></feColorMatrix>
            <feMerge>
                <feMergeNode in="shadowMatrixOuter1"></feMergeNode>
                <feMergeNode in="SourceGraphic"></feMergeNode>
            </feMerge>
        </filter>
        <path d="M19.7418993,3.68879437 C28.2718096,13.1876078 32.5367647,21.6073999 32.5367647,28.9481707 C32.5367647,36.419287 31.0392189,42.7851414 28.0441274,48.0457339 C27.4608697,49.0745316 26.3695256,49.7095302 25.1868977,49.7103659 L7.34986698,49.7103659 C6.16723908,49.7095302 5.07589496,49.0745316 4.49263732,48.0457339 C1.49754577,42.7851414 0,36.419287 0,28.9481707 C0,21.6053791 4.26730367,13.1829719 12.801911,3.68094927 L12.8034982,3.68237674 C14.526247,1.76691974 17.4755955,1.61069886 19.3910525,3.33344765 C19.5149395,3.44487077 19.6327674,3.56285182 19.7440296,3.68688343 Z" id="path-kjfcqduzsr-3"></path>
        <path d="M1.76470588,0 L54.7058824,0 C55.6805025,4.30097885e-17 56.4705882,0.790085736 56.4705882,1.76470588 L56.4705882,6.17647059 C56.4705882,8.12571088 54.8904168,9.70588235 52.9411765,9.70588235 L3.52941176,9.70588235 C1.58017147,9.70588235 2.90324835e-15,8.12571088 0,6.17647059 L0,1.76470588 C-1.19356544e-16,0.790085736 0.790085736,-4.30097885e-17 1.76470588,0 Z" id="path-kjfcqduzsr-5"></path>
        <path d="M3.52941176,0 L42.3529412,0 C44.3021815,-3.58069633e-16 45.8823529,1.58017147 45.8823529,3.52941176 L45.8823529,34.4117647 L45.8823529,34.4117647 L0,34.4117647 L0,3.52941176 C-2.38713089e-16,1.58017147 1.58017147,-9.74197997e-16 3.52941176,0 Z" id="path-kjfcqduzsr-7"></path>
        <path d="M0.954484243,0.00294924597 L11.4400605,0.862422709 C11.9257417,0.902232648 12.2871919,1.32822742 12.2473819,1.81390867 C12.2303178,2.022091 12.1399512,2.21746865 11.9923604,2.36527941 L9.452,4.909 L14.2927,9.75015128 C14.6372802,10.0947315 14.6372802,10.6534065 14.2927,10.9979868 L11.0993123,14.1913744 C10.7547321,14.5359547 10.1960571,14.5359547 9.85147682,14.1913744 L5.014,9.354 L2.38058214,11.9913822 C2.03625855,12.3362189 1.47758373,12.3366349 1.13274699,11.9923113 C0.984907815,11.8446922 0.89424483,11.6494036 0.876894913,11.4412046 L0.00309689222,0.955628365 C-0.0373720067,0.470001578 0.323499763,0.0435167593 0.80912655,0.00304786037 C0.857493938,-0.000982755303 0.906111431,-0.00101573866 0.954484243,0.00294924597 Z" id="path-kjfcqduzsr-9"></path>
        <path d="M0,0 L47.6470588,0 L47.6470588,28.2352941 C47.6470588,30.1845344 46.0668874,31.7647059 44.1176471,31.7647059 L3.52941176,31.7647059 C1.58017147,31.7647059 2.45915914e-15,30.1845344 0,28.2352941 L0,0 L0,0 Z" id="path-kjfcqduzsr-11"></path>
        <path d="M3.52941176,0 L47.6470588,0 C49.5962991,-8.02158843e-16 51.1764706,1.58017147 51.1764706,3.52941176 L51.1764706,9.93258241 C51.1764706,10.814028 50.5260681,11.5602989 49.6528895,11.6807373 L25.5882353,15 L25.5882353,15 L1.52358106,11.6807373 C0.650402459,11.5602989 2.66718372e-15,10.814028 0,9.93258241 L0,3.52941176 C-6.82802298e-16,1.58017147 1.58017147,-8.60195769e-17 3.52941176,0 Z" id="path-kjfcqduzsr-13"></path>
        <path d="M7.64557432,28.6524574 C6.32445665,31.2378489 3.63607578,33.0077931 0.534491581,33.0077931 C-3.11914942,33.0077931 -6.19940269,30.5517037 -7.14670664,27.199801 L-3.09344425,27.2004364 L-3.09344425,22.8449189 L-7.14644284,22.8446212 C-6.19883097,19.4931958 -3.11881035,17.0375622 0.534491581,17.0375622 C3.63607578,17.0375622 6.32445665,18.8075064 7.64557432,21.3928979 L25.6493427,21.3928979 C26.9704604,18.8075064 29.6588412,17.0375622 32.7604254,17.0375622 C36.4137274,17.0375622 39.493748,19.4931958 40.4413599,22.8446212 L36.3883613,22.8449189 L36.3883613,27.2004364 L40.4416236,27.199801 C39.4943197,30.5517037 36.4140664,33.0077931 32.7604254,33.0077931 C29.6588412,33.0077931 26.9704604,31.2378489 25.6493427,28.6524574 Z" id="path-kjfcqduzsr-15"></path>
        <path d="M23.6997335,0.0942932882 L23.8560438,0.145267629 L26.1644723,0.986603583 C27.4094514,1.44069862 28.0514975,2.81757107 27.5990973,4.06316705 L27.283132,4.93475518 C28.5036039,5.84919396 29.5888749,6.93437748 30.5035469,8.15489157 L31.3723531,7.83923115 L31.5290857,7.78735129 C32.7315444,7.43974889 34.0143701,8.07948926 34.4480109,9.27343385 L35.2886324,11.5840805 C35.7410326,12.8296764 35.0989865,14.2065489 33.8540074,14.6606439 L33.4225893,14.8181304 C33.5959437,15.7609694 33.6865291,16.7327955 33.6865291,17.7257885 C33.6865291,18.7187816 33.5959437,19.6906077 33.4225893,20.6334467 L33.8540074,20.7909332 C35.0989865,21.2450282 35.7410326,22.6219007 35.2886324,23.8674966 L34.4480109,26.1781432 C34.0143701,27.3720878 32.7315444,28.0118282 31.5290857,27.6642258 L31.3727754,27.6132515 L30.5033864,27.2968997 C29.5887479,28.5173266 28.5035326,29.6024366 27.283132,30.5168219 L27.5990973,31.38841 C28.0514975,32.634006 27.4094514,34.0108785 26.1644723,34.4649735 L23.856466,35.3054039 L23.6997335,35.3572838 C22.4972747,35.7048862 21.214449,35.0651458 20.7808082,33.8712012 L20.6209205,33.4336156 C19.6813346,33.6059697 18.7129843,33.6960194 17.7236114,33.6960194 C16.7296662,33.6960194 15.7569383,33.6051354 14.8132775,33.4312208 L14.6527503,33.8712012 C14.2191095,35.0651458 12.9362837,35.7048862 11.733825,35.3572838 L11.5775147,35.3063095 L9.26908622,34.4649735 C8.0241071,34.0108785 7.38206098,32.634006 7.83446122,31.38841 L8.15410084,30.5093309 C6.9364415,29.5955171 5.85361995,28.5116351 4.94085386,27.2929187 L4.06120535,27.6123459 C2.81516941,28.0664102 1.43804231,27.4239985 0.985547539,26.1781432 L0.144926071,23.8674966 C-0.307474165,22.6219007 0.334571958,21.2450282 1.57955108,20.7909332 L2.0237128,20.6284348 C1.8509584,19.6871638 1.76069373,18.7170222 1.76069373,17.7257885 C1.76069373,16.7341859 1.85102561,15.763691 2.02390575,14.8220912 L1.57955108,14.6606439 C0.334571958,14.2065489 -0.307474165,12.8296764 0.144926071,11.5840805 L0.985547539,9.27343385 C1.43804231,8.02757863 2.81516941,7.38516693 4.06078309,7.83832563 L4.94099015,8.15847641 C5.85372774,6.93983413 6.9365021,5.85601456 8.15410084,4.94224622 L7.83446122,4.06316705 C7.38206098,2.81757107 8.0241071,1.44069862 9.26908622,0.986603583 L11.5770925,0.146173155 L11.733825,0.0942932882 C12.9362837,-0.253309113 14.2191095,0.386431263 14.6527503,1.58037585 L14.8122758,2.020541 C15.7562499,1.846506 16.7293145,1.75555769 17.7236114,1.75555769 C18.713336,1.75555769 19.6820231,1.84567147 20.6219225,2.01814536 L20.7808082,1.58037585 C21.214449,0.386431263 22.4972747,-0.253309113 23.6997335,0.0942932882 Z" id="path-kjfcqduzsr-17"></path>
    </defs>
    <g id="页面-1" stroke="none" stroke-width="1" fill="none" fill-rule="evenodd">
        <g id="首页" transform="translate(-141.000000, -1244.000000)">
            <path d="M219,1244 L259,1244 L259,1244 L299,1244 C307.836556,1244 315,1251.16344 315,1260 L315,1340 C315,1348.83656 307.836556,1356 299,1356 L219,1356 C210.163444,1356 203,1348.83656 203,1340 L203,1260 C203,1251.16344 210.163444,1244 219,1244 Z" id="矩形" fill="url(#linearGradient-kjfcqduzsr-1)"></path>
            <g id="编组-52备份-2" transform="translate(229.000000, 1270.000000)" filter="url(#filter-kjfcqduzsr-2)">
                <polygon id="矩形备份-11" points="-3.92914867e-14 0 60 0 60 60 -3.92914867e-14 60"></polygon>
                <g id="编组-46" transform="translate(6.562500, 0.988948)">
                    <g id="编组-45" transform="translate(0.000000, 29.817073)" fill="#1677FF" stroke="#000818">
                        <path d="M2.04612979,1.02380221 L6.42043796,4.95209228 C6.69715537,5.20059471 6.88446455,5.53320742 6.95349666,5.8986668 L9.47319142,19.2380538 C9.53194662,19.5491067 9.45906037,19.8545275 9.29372209,20.0968739 C9.12838381,20.3392203 8.8705935,20.5184922 8.55954059,20.5772474 C8.24258847,20.6371169 7.91507939,20.5606836 7.65737071,20.366701 L0.527771425,15.0001058 L2.04612979,1.02380221 Z" id="路径-7备份" transform="translate(5.376838, 11.661585) scale(-1, 1) translate(-5.376838, -11.661585) "></path>
                    </g>
                    <g id="编组-45备份" transform="translate(41.498162, 41.478659) scale(-1, 1) translate(-41.498162, -41.478659) translate(36.121324, 29.817073)" fill="#1677FF" stroke="#000818">
                        <path d="M2.04612979,1.02380221 L6.42043796,4.95209228 C6.69715537,5.20059471 6.88446455,5.53320742 6.95349666,5.8986668 L9.47319142,19.2380538 C9.53194662,19.5491067 9.45906037,19.8545275 9.29372209,20.0968739 C9.12838381,20.3392203 8.8705935,20.5184922 8.55954059,20.5772474 C8.24258847,20.6371169 7.91507939,20.5606836 7.65737071,20.366701 L0.527771425,15.0001058 L2.04612979,1.02380221 Z" id="路径-7备份" transform="translate(5.376838, 11.661585) scale(-1, 1) translate(-5.376838, -11.661585) "></path>
                    </g>
                    <g id="椭圆形" transform="translate(7.169118, 0.000000)">
                        <mask id="mask-kjfcqduzsr-4" fill="white">
                            <use xlink:href="#path-kjfcqduzsr-3"></use>
                        </mask>
                        <path stroke="#000818" d="M15.9988105,1.64408297 C17.318777,1.57446988 18.6651503,2.008098 19.7254102,2.9616884 C28.7592849,12.9816492 33.0367647,21.5191016 33.0367647,28.9481707 C33.0367647,36.5174989 31.5125279,42.9643832 28.4790891,48.2923274 C28.1431481,48.8848876 27.6609377,49.3640836 27.0924187,49.6953048 C26.5237159,50.0266329 25.8686405,50.2098842 25.1868977,50.2103659 L7.34951366,50.2103657 C6.66812422,50.2098842 6.01304877,50.0266329 5.44434605,49.6953048 C4.87582698,49.3640836 4.39361659,48.8848876 4.05812627,48.2931206 C1.02423681,42.9643832 -0.5,36.5174989 -0.5,28.9481707 C-0.5,21.5156867 3.78246812,12.9745078 12.4304289,3.34628365 C13.3850079,2.28669184 14.6786982,1.71370375 15.9988105,1.64408297 Z"></path>
                        <path d="M12.8216912,13.445122 C17.8768382,25.6097561 17.0036765,38.2317073 10.2022059,51.3109756 C3.40073529,64.3902439 -0.78125,62.8353659 -2.34375,46.6463415 L-6.75551471,20.9908537 L5.92830882,10.152439 L12.8216912,13.445122 Z" id="路径-8" fill="#06E7E7" mask="url(#mask-kjfcqduzsr-4)"></path>
                        <ellipse fill="#1677FF" mask="url(#mask-kjfcqduzsr-4)" cx="16.2683824" cy="-7.40853659" rx="21.2316176" ry="21.1280488"></ellipse>
                        <path d="M3.30882353,19.4817073 C2.07158123,22.8376017 1.36911274,25.5512885 1.20141807,27.6227679 C0.973297799,30.4406655 1.21729304,33.5627914 1.65441176,37.0426829" id="路径-9" stroke-opacity="0.5" stroke="#FFFFFF" stroke-width="2.34375" stroke-linecap="round" mask="url(#mask-kjfcqduzsr-4)"></path>
                        <path d="M2.275307,22.2802029 C1.87201599,23.6769078 1.37274357,25.2418807 1.20141807,26.8694196 C1.03247779,28.4742996 1.18827743,30.1385543 1.24488868,31.9678856" id="路径-9备份" stroke-opacity="0.75" stroke="#FFFFFF" stroke-width="2.34375" stroke-linecap="round" mask="url(#mask-kjfcqduzsr-4)"></path>
                    </g>
                    <ellipse id="椭圆形" stroke="#000818" fill="#FFFFFF" cx="23.5753676" cy="26.9771341" rx="6.64154406" ry="6.60670726"></ellipse>
                    <path d="M30.1796972,50.1875 L31.2396727,56.8679311 C31.2774054,57.1057389 31.2151752,57.3363276 31.08406,57.5168976 C30.9592894,57.6887297 30.7721392,57.8152668 30.5493902,57.8596265 L16.4965055,57.8765244 C16.2557228,57.8765244 16.037735,57.7789279 15.8799429,57.6211358 C15.7297327,57.4709256 15.6340723,57.2661656 15.6252261,57.0391202 L16.6962931,50.1875 L30.1796972,50.1875 Z" id="矩形" stroke="#000818" fill="#1677FF"></path>
                </g>
            </g>
            <text id="Speed-as-you-need" opacity="0.95" font-family="AlibabaPuHuiTiM, Alibaba PuHuiTi" font-size="24" font-weight="400" line-spacing="32" fill="#FFFFFF">
                <tspan x="149" y="1409">Speed as you need</tspan>
            </text>
            <g id="编组-43" transform="translate(515.000000, 1244.000000)">
                <path d="M16,0 L56,0 L56,0 L96,0 C104.836556,4.4488325e-15 112,7.163444 112,16 L112,96 C112,104.836556 104.836556,112 96,112 L16,112 C7.163444,112 7.1542475e-15,104.836556 0,96 L0,16 C-2.85852284e-15,7.163444 7.163444,-1.53107837e-16 16,0 Z" id="矩形" fill="url(#linearGradient-kjfcqduzsr-1)"></path>
                <g id="编组-71" transform="translate(26.000000, 26.000000)">
                    <g id="编组-69">
                        <rect id="矩形" x="0" y="0" width="60" height="60"></rect>
                        <g id="椭圆形" transform="translate(1.764706, 43.235294)">
                            <mask id="mask-kjfcqduzsr-6" fill="white">
                                <use xlink:href="#path-kjfcqduzsr-5"></use>
                            </mask>
                            <path stroke="#011540" stroke-width="0.882352941" d="M54.7058824,-0.441176471 C55.3150199,-0.441176471 55.8664905,-0.194274678 56.2656767,0.204911512 C56.6648629,0.604097702 56.9117647,1.15556829 56.9117647,1.76470588 L56.9117647,6.17647059 C56.9117647,7.27291825 56.4673415,8.26556531 55.7488063,8.98410045 C55.0302712,9.7026356 54.0376241,10.1470588 52.9411765,10.1470588 L3.52941176,10.1470588 C2.4329641,10.1470588 1.44031704,9.7026356 0.721781898,8.98410045 C0.00324675568,8.26556531 -0.441176471,7.27291825 -0.441176471,6.17647059 L-0.441176471,1.76470588 C-0.441176471,1.15556829 -0.194274678,0.604097702 0.204911512,0.204911512 C0.604097702,-0.194274678 1.15556829,-0.441176471 1.76470588,-0.441176471 Z"></path>
                            <circle fill="#3C8DFF" mask="url(#mask-kjfcqduzsr-6)" cx="11.4705882" cy="-16.7647059" r="29.1176471"></circle>
                            <g id="编组-4" mask="url(#mask-kjfcqduzsr-6)" stroke="#FFFFFF" stroke-linecap="round" stroke-width="2.34375">
                                <g transform="translate(4.411765, 0.882353)">
                                    <line x1="7.90670956" y1="0.441176471" x2="2.80993974e-14" y2="0.441176471" id="路径-7" stroke-opacity="0.2"></line>
                                    <line x1="5.56295956" y1="0.441176471" x2="2.34375" y2="0.441176471" id="路径-7备份-2" stroke-opacity="0.5"></line>
                                </g>
                            </g>
                        </g>
                        <path d="M19.4117647,43.2352941 L40.5882353,43.2352941 L39.4891158,45.983093 C39.0871245,46.988071 38.1137778,47.6470588 37.0313833,47.6470588 L22.9686167,47.6470588 C21.8862222,47.6470588 20.9128755,46.988071 20.5108842,45.983093 L19.4117647,43.2352941 L19.4117647,43.2352941 Z" id="矩形" fill="#6FAAFD"></path>
                        <g id="椭圆形" transform="translate(7.058824, 7.941176)">
                            <mask id="mask-kjfcqduzsr-8" fill="white">
                                <use xlink:href="#path-kjfcqduzsr-7"></use>
                            </mask>
                            <path stroke="#011540" stroke-width="0.882352941" d="M42.3529412,-0.441176471 C43.4493888,-0.441176471 44.4420359,0.00324675568 45.160571,0.721781898 C45.8791062,1.44031704 46.3235294,2.4329641 46.3235294,3.52941176 L46.3235294,34.8529412 L-0.441176471,34.8529412 L-0.441176471,3.52941176 C-0.441176471,2.4329641 0.00324675568,1.44031704 0.721781898,0.721781898 C1.44031704,0.00324675568 2.4329641,-0.441176471 3.52941176,-0.441176471 Z"></path>
                            <circle fill="#CD4FE8" mask="url(#mask-kjfcqduzsr-8)" cx="6.17647059" cy="18.5294118" r="29.1176471"></circle>
                        </g>
                    </g>
                    <path d="M30,15.7941176 C32.5827434,15.7941176 34.9209787,16.8409812 36.6135281,18.5335307 C38.3060776,20.2260801 39.3529412,22.5643154 39.3529412,25.1470588 C39.3529412,27.7298022 38.3060776,30.0680375 36.6135281,31.760587 C34.9209787,33.4531364 32.5827434,34.5 30,34.5 C27.4172566,34.5 25.0790213,33.4531364 23.3864719,31.760587 C21.6939224,30.0680375 20.6470588,27.7298022 20.6470588,25.1470588 C20.6470588,22.5643154 21.6939224,20.2260801 23.3864719,18.5335307 C25.0790213,16.8409812 27.4172566,15.7941176 30,15.7941176 Z M32.7199801,19.9437046 C32.4940866,19.9708883 32.2829293,20.0165217 31.6392511,20.5714335 L29.9897941,23.2338604 L28.1496448,20.2377501 C27.9365684,20.0634788 27.6921113,19.9644827 27.3463141,19.943584 C26.9117739,19.9946006 26.6347755,20.1341669 26.4793658,20.308717 C26.3357395,20.4700324 26.1172652,20.614282 26.4957888,21.9732619 L27.7478133,24.0960919 L26.6957582,24.0960919 C26.4151383,24.116528 26.1672002,24.1141513 25.6789786,25.1447406 C25.7114331,25.4155239 25.8104107,25.6368804 25.9666457,25.8132218 C26.1359821,26.0043508 26.3745229,26.1223402 26.6957775,26.1425681 L28.9296675,26.1458501 L26.6957582,26.1458501 L26.5976287,26.1538375 C26.353477,26.180047 26.1097862,26.28535 25.6791809,27.1961536 C25.7097407,27.4413218 25.7986629,27.6645293 25.9463924,27.8655998 C26.1205636,28.1026593 26.3678042,28.2387399 26.6968353,28.2588638 L28.5767263,28.2588638 L28.5767263,29.0663405 C28.5962148,29.5093863 28.7524324,29.8269943 29.0100199,30.0395502 C29.251562,30.2388657 29.5851311,30.3529412 30.0230179,30.3529412 C30.47189,30.3529412 30.8041679,30.2334233 31.0358966,30.0295262 C31.2787447,29.8158452 31.4269044,29.5011395 31.4462916,29.0664451 L31.4462916,28.2384784 L33.3142284,28.2478444 C33.6240552,28.2282013 33.86253,28.111167 34.038537,27.9134829 C34.2030372,27.7287227 34.3003948,27.5004305 34.3223171,27.1675888 C34.3004317,26.9042234 34.2056569,26.678704 34.041789,26.4893955 L33.9622259,26.4071622 C33.8231287,26.2788654 33.6513705,26.1947384 33.4439279,26.1604194 L33.389,26.154 L33.3046016,26.1647252 C33.6113575,26.1449175 33.8516224,26.0274811 34.0322433,25.8255496 C34.190216,25.6489385 34.3711629,25.4722315 34.0277918,24.4022344 C33.8545754,24.2243602 33.6203735,24.1158275 33.3152372,24.0960919 L32.2119375,24.0960919 L33.8123297,21.2238194 C33.7685097,21.0162733 33.5777279,20.6782017 32.7199801,19.9437046 Z" id="形状结合" stroke="#011540" stroke-width="0.705882353" fill="#FFFFFF"></path>
                    <g id="椭圆形" transform="translate(36.259853, 25.670357)">
                        <mask id="mask-kjfcqduzsr-10" fill="white">
                            <use xlink:href="#path-kjfcqduzsr-9"></use>
                        </mask>
                        <path stroke="#011540" stroke-width="0.882352941" d="M0.812138575,-0.439324247 L11.4761016,0.422720862 C11.8403626,0.452578315 12.1580368,0.627255084 12.3771815,0.885532723 C12.5963262,1.14381036 12.7169412,1.48568887 12.6870838,1.84994981 C12.6614876,2.1622233 12.5259376,2.45528977 12.3045254,2.67703203 L10.0756971,4.90880843 L14.6046588,9.43819241 C14.863094,9.6966276 14.9923116,10.0353483 14.9923116,10.374069 C14.9923116,10.7127897 14.863094,11.0515105 14.6046588,11.3099457 L11.4112712,14.5033333 C11.152836,14.7617685 10.8141153,14.8909861 10.4753946,14.8909861 C10.1366739,14.8909861 9.79795314,14.7617685 9.53952124,14.5033366 L5.01423802,9.97814916 L2.69277321,12.3031087 C2.43453052,12.5617363 2.09590612,12.691206 1.7571855,12.6914582 C1.41846488,12.6917104 1.07964804,12.5627451 0.821020486,12.3045024 C0.599261725,12.0830736 0.463267247,11.7901408 0.437242373,11.4778423 L-0.436555648,0.992266076 C-0.466907322,0.628045986 -0.346756246,0.286004134 -0.127962228,0.0274293863 C0.0987350627,-0.240485594 0.431330361,-0.418794568 0.812138575,-0.439324247 Z"></path>
                        <circle fill="#3C8DFF" mask="url(#mask-kjfcqduzsr-10)" cx="-23.0245588" cy="0.80023116" r="29.1176471"></circle>
                    </g>
                </g>
            </g>
            <text id="Pay-as-you-need" opacity="0.95" font-family="AlibabaPuHuiTiM, Alibaba PuHuiTi" font-size="24" font-weight="400" line-spacing="32" fill="#FFFFFF">
                <tspan x="476" y="1409">Pay as you need</tspan>
            </text>
            <path d="M833,1244 L873,1244 L873,1244 L913,1244 C921.836556,1244 929,1251.16344 929,1260 L929,1340 C929,1348.83656 921.836556,1356 913,1356 L833,1356 C824.163444,1356 817,1348.83656 817,1340 L817,1260 C817,1251.16344 824.163444,1244 833,1244 Z" id="矩形" fill="url(#linearGradient-kjfcqduzsr-1)"></path>
            <g id="编组-10" transform="translate(843.000000, 1270.000000)">
                <rect id="矩形" x="0" y="0" width="60" height="60"></rect>
                <g id="编组-9" transform="translate(4.411765, 4.852941)">
                    <g id="编组-74">
                        <g id="椭圆形" transform="translate(1.764706, 17.205882)">
                            <mask id="mask-kjfcqduzsr-12" fill="white">
                                <use xlink:href="#path-kjfcqduzsr-11"></use>
                            </mask>
                            <path stroke="#000818" stroke-width="0.882352941" d="M48.0882353,-0.441176471 L48.0882353,28.2352941 C48.0882353,29.3317418 47.6438121,30.3243888 46.9252769,31.042924 C46.2067418,31.7614591 45.2140947,32.2058824 44.1176471,32.2058824 L3.52941176,32.2058824 C2.4329641,32.2058824 1.44031704,31.7614591 0.721781898,31.042924 C0.00324675568,30.3243888 -0.441176471,29.3317418 -0.441176471,28.2352941 L-0.441176471,-0.441176471 L48.0882353,-0.441176471 Z"></path>
                            <circle fill="#FF7F4C" mask="url(#mask-kjfcqduzsr-12)" cx="-0.882352941" cy="11.4705882" r="24.7058824"></circle>
                        </g>
                        <g id="椭圆形" transform="translate(0.000000, 10.147059)">
                            <mask id="mask-kjfcqduzsr-14" fill="white">
                                <use xlink:href="#path-kjfcqduzsr-13"></use>
                            </mask>
                            <path stroke="#000818" stroke-width="0.882352941" d="M47.6470588,-0.441176471 C48.7435065,-0.441176471 49.7361535,0.00324675568 50.4546887,0.721781898 C51.1732238,1.44031704 51.6176471,2.4329641 51.6176471,3.52941176 L51.6176471,9.93258241 C51.6176471,10.4834859 51.4143963,10.9921473 51.0747114,11.3819013 C50.7350264,11.7716554 50.2589074,12.0425021 49.7131707,12.1177761 L25.5882353,15.4453534 L1.46329986,12.1177761 C0.917563231,12.0425021 0.441444149,11.7716554 0.101759223,11.3819013 C-0.237925702,10.9921473 -0.441176471,10.4834859 -0.441176471,9.93258241 L-0.441176471,3.52941176 C-0.441176471,2.4329641 0.00324675568,1.44031704 0.721781898,0.721781898 C1.44031704,0.00324675568 2.4329641,-0.441176471 3.52941176,-0.441176471 Z"></path>
                            <circle fill="#3C8DFF" mask="url(#mask-kjfcqduzsr-14)" cx="0.882352941" cy="18.5294118" r="24.7058824"></circle>
                            <g id="编组-4" mask="url(#mask-kjfcqduzsr-14)" stroke="#FFFFFF" stroke-linecap="round" stroke-width="2.34375">
                                <g transform="translate(7.058824, 0.882353)">
                                    <line x1="7.90670956" y1="0.441176471" x2="2.80993974e-14" y2="0.441176471" id="路径-7" stroke-opacity="0.5"></line>
                                    <line x1="5.56295956" y1="0.441176471" x2="2.34375" y2="0.441176471" id="路径-7备份-2" stroke-opacity="0.75"></line>
                                </g>
                            </g>
                            <path d="M29.1176471,4.85294118 L29.5588235,7.94117647 L22.0588235,8.38235294 L21.6176471,5.29411765 L29.1176471,4.85294118 Z" id="矩形" stroke="#000818" stroke-width="0.882352941" fill="#FFFFFF" mask="url(#mask-kjfcqduzsr-14)"></path>
                        </g>
                        <path d="M32.6470588,0 C34.5962991,0 36.1764706,1.58017147 36.1764706,3.52941176 L36.1764706,9.70588235 L32.6470588,9.70588235 L32.6470588,4.41176471 C32.6470588,3.92445463 32.252016,3.52941176 31.7647059,3.52941176 L18.5294118,3.52941176 C18.0421017,3.52941176 17.6470588,3.92445463 17.6470588,4.41176471 L17.6470588,9.70588235 L17.6470588,9.70588235 L14.1176471,9.70588235 L14.1176471,3.52941176 C14.1176471,1.58017147 15.6978185,0 17.6470588,0 L32.6470588,0 Z" id="路径-15" stroke="#000818" stroke-width="0.882352941" fill="#1677FF" fill-rule="nonzero"></path>
                    </g>
                    <g id="编组-72" transform="translate(12.718424, 30.441176)" fill="#FFFFFF" fill-rule="nonzero" stroke="#011540" stroke-width="0.705882353">
                        <g id="编组-66" transform="translate(0.000000, 0.000000)">
                            <path d="M14.1414892,-0.162207937 C14.5662793,-0.387507437 15.0460039,-0.411294985 15.4937039,-0.229794979 C15.9226516,-0.0558972473 16.2405049,0.275403025 16.4076469,0.670465798 C16.5747888,1.06552857 16.5912194,1.52435385 16.4173217,1.95330158 L15.4721701,4.28467549 L14.6165474,6.3952115 L12.6367153,11.2787972 C12.4628176,11.707745 12.1315173,12.0255983 11.7364546,12.1927402 C11.3413918,12.3598821 10.8825665,12.3763127 10.4536188,12.202415 C10.024671,12.0285173 9.70681772,11.697217 9.53967578,11.3021542 C9.37253384,10.9070914 9.35610326,10.4482662 9.53000099,10.0193184 L11.3716619,5.47655492 L12.3654557,3.02519671 L13.2151027,0.929400862 C13.4313652,0.395953427 13.7675201,0.0361371939 14.1414892,-0.162207937 Z M6.04254971,-0.352591203 C6.47151478,-0.352591203 6.90047984,-0.188946549 7.22776915,0.13834276 C7.55505845,0.465632068 7.71870311,0.89459713 7.71870311,1.32356219 C7.71870311,1.75252725 7.55505845,2.18149231 7.22777245,2.50877831 L3.87634983,5.8602898 L7.22776915,9.21179797 C7.53438736,9.51841619 7.69734998,9.91427648 7.71674186,10.3157574 C7.73632139,10.7211233 7.60932316,11.1321422 7.33620337,11.462973 C6.94966797,11.8569579 6.51223891,12.0397823 6.0891163,12.0601896 C5.63494059,12.0820946 5.19299058,11.9178971 4.85733028,11.5822368 L0.320602678,7.04550923 C-0.0528749852,6.67203156 -0.238052259,6.32020208 -0.29893739,6.0156012 C-0.381631864,5.60189084 -0.255368258,5.2510413 0.00886809383,4.98680495 L4.85733028,0.13834276 C5.18461959,-0.188946549 5.61358465,-0.352591203 6.04254971,-0.352591203 Z M19.6527325,-0.352591203 C20.0816976,-0.352591203 20.5106627,-0.188946549 20.837952,0.13834276 L25.3746796,4.67507036 C25.7481572,5.04854803 25.9333345,5.40037751 25.9942196,5.70497839 C26.0769141,6.11868875 25.9506505,6.46953829 25.6864141,6.73377464 L20.837952,11.5822368 C20.5106627,11.9095261 20.0816976,12.0731708 19.6527325,12.0731708 C19.2237675,12.0731708 18.7948024,11.9095261 18.4675131,11.5822368 C18.1334517,11.1859045 17.9885719,10.7643158 17.9885719,10.3632277 C17.9885719,9.9351297 18.1526134,9.52669766 18.4675098,9.21180128 L21.8189324,5.8602898 L18.4675131,2.50878162 C18.1402238,2.18149231 17.9765791,1.75252725 17.9765791,1.32356219 C17.9765791,0.89459713 18.1402238,0.465632068 18.4675131,0.13834276 C18.7948024,-0.188946549 19.2237675,-0.352591203 19.6527325,-0.352591203 Z" id="形状结合"></path>
                        </g>
                    </g>
                </g>
            </g>
            <text id="Deploy-as-you-need" opacity="0.95" font-family="AlibabaPuHuiTiM, Alibaba PuHuiTi" font-size="24" font-weight="400" line-spacing="32" fill="#FFFFFF">
                <tspan x="758" y="1409">Deploy as you need</tspan>
            </text>
            <text id="灵活部署：模块可合并部署也可独立部署-变" opacity="0.55" font-family="PingFangSC-Regular, PingFang SC" font-size="14" font-weight="normal" line-spacing="24" fill="#FFFFFF">
                <tspan x="747" y="1443">灵活部署：模块可合并部署也可独立部署</tspan>
                <tspan x="747" y="1467">变更影响面小：一次部署只涉及模块自身</tspan>
                <tspan x="789" y="1491">代码变更和对应的机器变更</tspan>
            </text>
            <text id="模块粒度小，占用资源少，调度密度与资源复" opacity="0.55" font-family="PingFangSC-Regular, PingFang SC" font-size="14" font-weight="normal" line-spacing="24" fill="#FFFFFF">
                <tspan x="453" y="1443">模块粒度小，占用资源少，调度密度与</tspan>
                <tspan x="453" y="1467">资源复用率高。模块和基座支持自动弹</tspan>
                <tspan x="516" y="1491">性伸缩，按需部署</tspan>
            </text>
            <text id="十秒级构建与启动，应用多个功能之间独立并" opacity="0.55" font-family="PingFangSC-Regular, PingFang SC" font-size="14" font-weight="normal" line-spacing="24" fill="#FFFFFF">
                <tspan x="141" y="1443">十秒级构建与启动，应用多个功能之间</tspan>
                <tspan x="197" y="1467">独立并行迭代无阻塞</tspan>
            </text>
            <path d="M1140,1244 L1180,1244 L1180,1244 L1220,1244 C1228.83656,1244 1236,1251.16344 1236,1260 L1236,1340 C1236,1348.83656 1228.83656,1356 1220,1356 L1140,1356 C1131.16344,1356 1124,1348.83656 1124,1340 L1124,1260 C1124,1251.16344 1131.16344,1244 1140,1244 Z" id="矩形" fill="url(#linearGradient-kjfcqduzsr-1)"></path>
            <rect id="矩形" x="1150" y="1270" width="60" height="60"></rect>
            <g id="编组-51" transform="translate(1150.997213, 1273.869600)">
                <g id="椭圆形" transform="translate(0.000000, 4.384693)">
                    <mask id="mask-kjfcqduzsr-16" fill="white">
                        <use xlink:href="#path-kjfcqduzsr-15"></use>
                    </mask>
                    <path stroke="#000818" d="M32.7604254,17.5375622 C34.452331,17.5375622 36.0131135,18.0993612 37.2663779,19.0468736 C38.3751336,19.8851323 39.2434578,21.025022 39.7489716,22.344672 L35.8883613,22.3449556 L35.8883613,27.7005148 L39.749268,27.6999095 C39.2438526,29.0197432 38.3755404,30.1598096 37.2667422,30.9982063 C36.0134159,31.9458852 34.452495,32.5077931 32.7604254,32.5077931 C31.3313647,32.5077931 29.9958254,32.1070682 28.8601671,31.4115099 C27.5997539,30.6395426 26.5853728,29.5048146 25.9622514,28.1524574 L7.33266564,28.1524574 C6.70954418,29.5048146 5.69516316,30.6395426 4.43474987,31.4115099 C3.29909157,32.1070682 1.9635523,32.5077931 0.534491581,32.5077931 C-1.15757795,32.5077931 -2.7184989,31.9458852 -3.97182517,30.9982063 C-5.08062343,30.1598096 -5.94893555,29.0197432 -6.45435098,27.6999095 L-2.59344425,27.7005148 L-2.59344425,22.3449556 L-6.45405462,22.344672 C-5.9485408,21.025022 -5.08021661,19.8851323 -3.97146092,19.0468736 C-2.71819649,18.0993612 -1.15741403,17.5375622 0.534491581,17.5375622 C1.9635523,17.5375622 3.29909157,17.9382871 4.43474987,18.6338454 C5.69516316,19.4058127 6.70954418,20.5405407 7.33266564,21.8928979 L25.9622514,21.8928979 C26.5853728,20.5405407 27.5997539,19.4058127 28.8601671,18.6338454 C29.9958254,17.9382871 31.3313647,17.5375622 32.7604254,17.5375622 Z"></path>
                </g>
                <g id="编组-52" transform="translate(21.698842, -0.000000)">
                    <g id="椭圆形" transform="translate(-0.000000, -0.000000)">
                        <mask id="mask-kjfcqduzsr-18" fill="white">
                            <use xlink:href="#path-kjfcqduzsr-17"></use>
                        </mask>
                        <path stroke="#000818" stroke-width="1.2" d="M21.5583949,-0.161042464 C22.2709624,-0.606448171 23.0930494,-0.7114376 23.8863833,-0.47624335 L26.370068,0.422927791 C27.1480511,0.706690204 27.7376592,1.27876437 28.0620867,1.97450152 C28.3865142,2.67023867 28.4457557,3.48962683 28.1631759,4.26765496 C29.0026339,5.52390651 29.9139594,6.4351429 30.710956,7.44115966 L31.1843497,7.26916311 C32.0169097,7.01967828 32.8254518,7.09533371 33.4940358,7.40709954 C34.1885968,7.73097863 34.7366748,8.31064533 35.0118567,9.06830475 L35.8525875,11.3792521 C36.1352908,12.1576207 36.0760494,12.9770088 35.7516218,13.672746 C35.4730545,14.2701355 34.9989784,14.7763524 34.3781133,15.0872644 C34.2500823,15.7957372 34.266463,16.4517306 34.2787399,17.1027243 C34.2826561,17.3103852 34.2865291,17.5176305 34.2865291,17.7257885 C34.2865291,18.589989 34.2203563,19.4387301 34.0928939,20.2672144 C34.8143236,20.6209326 35.3285678,21.1133585 35.6442129,21.660405 C36.0738247,22.4049676 36.1474146,23.2605759 35.8524782,24.0726257 L35.011966,26.3829718 C34.7418255,27.1267503 34.2080619,27.6984628 33.5545234,28.0311922 C32.890853,28.3690798 32.1036417,28.4602031 31.3434737,28.2350691 L30.7121082,28.0089629 C29.9148378,29.0155559 29.0031187,29.9272866 27.9966202,30.7244794 C28.4457557,31.9619503 28.3865142,32.7813384 28.0620867,33.4770756 C27.7376592,34.1728127 27.1480511,34.7448869 26.3697673,35.0287589 L24.0446843,35.8754076 C23.2120486,36.1249698 22.4034249,36.0493282 21.7347833,35.7375356 C21.1405233,35.4604276 20.6534941,34.996074 20.3526684,34.3930515 C19.6413754,34.2602422 18.9843053,34.2765486 18.3323483,34.2885753 C18.1294589,34.292318 17.926971,34.2960194 17.7236114,34.2960194 C16.8587918,34.2960194 16.0094599,34.229664 15.1805122,34.1019626 C14.8440344,34.7940504 14.38542,35.2933128 13.8756657,35.6121418 C13.1627534,36.0580373 12.3405831,36.1630361 11.5471753,35.9278205 L9.0634905,35.0286493 C8.28550737,34.7448869 7.69589932,34.1728127 7.37147178,33.4770756 C7.04704424,32.7813384 6.9878028,31.9619503 7.2705799,31.1833787 C6.43715667,29.9204972 5.52828008,29.0107411 4.73326973,28.0066332 C3.48784245,28.4598797 2.66809533,28.4009875 1.97232712,28.0765455 C1.27639696,27.7520279 0.704471442,27.1618232 0.421701769,26.3832723 L-0.419029009,24.072325 C-0.701732345,23.2939564 -0.6424909,22.4745683 -0.318063362,21.7788311 C-0.0389416233,21.1802526 0.43646801,20.67321 1.05915976,20.362475 C1.1963041,19.6454072 1.1799321,18.9841943 1.16797372,18.3281993 C1.16431358,18.1274172 1.16069373,17.9270295 1.16069373,17.7257885 C1.16069373,16.8631754 1.22662365,16.0159647 1.35362184,15.1888815 C0.627053327,14.8341334 0.109995667,14.3412396 -0.20740652,13.7942663 C-0.640226905,13.048395 -0.714166798,12.1918565 -0.418919699,11.3789514 L0.421592513,9.06860531 C0.70442148,8.28989146 1.27619895,7.69975315 1.9719151,7.375086 C2.66764483,7.05041251 3.48732914,6.99122857 4.26587164,7.27446511 C5.528503,6.44061285 6.43727971,5.53098231 7.44038425,4.73519762 C6.9878028,3.48962683 7.04704424,2.67023867 7.37147178,1.97450152 C7.69589932,1.27876437 8.28550737,0.706690204 9.06379113,0.422818231 L11.3888742,-0.423830484 C12.2215099,-0.673392738 13.0301336,-0.597751111 13.6987751,-0.285958464 C14.2930352,-0.00885048272 14.7800644,0.45550314 15.080818,1.05850405 C15.7946374,1.191808 16.4545592,1.17532469 17.1094565,1.16313534 C17.3141435,1.15932557 17.5184338,1.15555769 17.7236114,1.15555769 C18.5841307,1.15555769 19.429316,1.22125492 20.2543719,1.34776816 C20.5903229,0.656427935 21.0486963,0.157555583 21.5583949,-0.161042464 Z"></path>
                        <circle fill="#06E7E7" mask="url(#mask-kjfcqduzsr-18)" cx="1.18139056" cy="7.84921053" r="20.3782873"></circle>
                    </g>
                    <ellipse id="椭圆形" stroke="#000818" fill="#FFFFFF" cx="17.5553405" cy="17.5642758" rx="8.207046" ry="8.21103501"></ellipse>
                </g>
            </g>
            <text id="Evolution-as-you-nee" opacity="0.95" font-family="AlibabaPuHuiTiM, Alibaba PuHuiTi" font-size="24" font-weight="400" line-spacing="32" fill="#FFFFFF">
                <tspan x="1052" y="1409">Evolution as you need</tspan>
            </text>
            <text id="提供配套工具，传统应用能一键改造成模块，" opacity="0.55" font-family="PingFangSC-Regular, PingFang SC" font-size="14" font-weight="normal" line-spacing="24" fill="#FFFFFF">
                <tspan x="1054" y="1443">提供配套工具，传统应用能一键改造成模</tspan>
                <tspan x="1054" y="1467">块，大应用能低成本拆分成模块，模块能</tspan>
                <tspan x="1068" y="1491">轻松演进成微服务或者回到单体应用</tspan>
            </text>
            <path d="M1165.5,1298.5 C1165.5,1298.5 1166.17046,1300.12827 1167.51139,1303.38481" id="路径-2" stroke-opacity="0.5" stroke="#FFFFFF" stroke-width="2.34375" stroke-linecap="round"></path>
            <path d="M1166.05117,1299.83857 C1166.27445,1300.38081 1166.56557,1301.0878 1166.92452,1301.95954" id="路径-2备份" stroke-opacity="0.5" stroke="#FFFFFF" stroke-width="2.34375" stroke-linecap="round"></path>
        </g>
    </g>
</svg>