<svg width="14px" height="13px" viewBox="0 0 14 13" version="1.1" xmlns="http://www.w3.org/2000/svg" xmlns:xlink="http://www.w3.org/1999/xlink">
    <g id="页面-1" stroke="none" stroke-width="1" fill="none" fill-rule="evenodd" opacity="0.95">
        <g id="首页" transform="translate(-1208.000000, -24.000000)" fill="#FFFFFF">
            <g id="编组" transform="translate(1195.000000, 13.000000)">
                <g id="编组-22" transform="translate(12.000000, 10.000000)">
                    <g id="search" transform="translate(1.666667, 1.333333)">
                        <path d="M5.66666667,0 C8.79626667,0 11.3333333,2.53706667 11.3333333,5.66666667 C11.3333333,6.8496 10.9708667,7.94786667 10.3509667,8.85646667 L12.6117667,11.1174 C12.7419333,11.2475667 12.7419333,11.4586333 12.6117667,11.5888 L12.0460667,12.1545 C11.9159,12.2846667 11.7048333,12.2846667 11.5746667,12.1545 L9.3733,9.95306667 C8.37966667,10.8130333 7.08393333,11.3333333 5.66666667,11.3333333 C2.53706667,11.3333333 0,8.79626667 0,5.66666667 C0,2.53706667 2.53706667,0 5.66666667,0 Z M5.66666667,1.4 C3.31026667,1.4 1.4,3.31026667 1.4,5.66666667 C1.4,8.02306667 3.31026667,9.93333333 5.66666667,9.93333333 C8.02306667,9.93333333 9.93333333,8.02306667 9.93333333,5.66666667 C9.93333333,3.31026667 8.02306667,1.4 5.66666667,1.4 Z" id="形状"></path>
                    </g>
                </g>
            </g>
        </g>
    </g>
</svg>