<svg width="20px" height="20px" viewBox="0 0 20 20" version="1.1" xmlns="http://www.w3.org/2000/svg" xmlns:xlink="http://www.w3.org/1999/xlink">
    <g id="页面-1" stroke="none" stroke-width="1" fill="none" fill-rule="evenodd">
        <g id="最新消息" transform="translate(-20.000000, -146.000000)">
            <g id="编组-10" transform="translate(0.000000, 134.000000)">
                <g id="编组-2" transform="translate(20.000000, 10.000000)">
                    <g id="编组-40" transform="translate(0.000000, 2.000000)">
                        <rect id="矩形" x="0" y="0" width="20" height="20"></rect>
                        <g id="description-(2)" transform="translate(2.500000, 0.833333)" fill="#000000" opacity="0.25">
                            <path d="M14.1666667,0 C14.6269167,0 15,0.3908625 15,0.873016667 L15,17.4603333 C15,17.9424583 14.6269167,18.3333333 14.1666667,18.3333333 L0.833333333,18.3333333 C0.373095833,18.3333333 0,17.9424583 0,17.4603333 L0,0.873016667 C0,0.3908625 0.373095833,0 0.833333333,0 L14.1666667,0 Z M13.3333333,1.66666667 L1.66666667,1.66666667 L1.66666667,16.6666667 L13.3333333,16.6666667 L13.3333333,1.66666667 Z M11.25,11.6666667 C11.480125,11.6666667 11.6666667,11.8532083 11.6666667,12.0833333 L11.6666667,12.9166667 C11.6666667,13.1467917 11.480125,13.3333333 11.25,13.3333333 L3.75,13.3333333 C3.519875,13.3333333 3.33333333,13.1467917 3.33333333,12.9166667 L3.33333333,12.0833333 C3.33333333,11.8532083 3.519875,11.6666667 3.75,11.6666667 L11.25,11.6666667 Z M11.25,8.33333333 C11.480125,8.33333333 11.6666667,8.519875 11.6666667,8.75 L11.6666667,9.58333333 C11.6666667,9.81345833 11.480125,10 11.25,10 L3.75,10 C3.519875,10 3.33333333,9.81345833 3.33333333,9.58333333 L3.33333333,8.75 C3.33333333,8.519875 3.519875,8.33333333 3.75,8.33333333 L11.25,8.33333333 Z M6.25,5 C6.480125,5 6.66666667,5.18654167 6.66666667,5.41666667 L6.66666667,6.25 C6.66666667,6.480125 6.480125,6.66666667 6.25,6.66666667 L3.75,6.66666667 C3.519875,6.66666667 3.33333333,6.480125 3.33333333,6.25 L3.33333333,5.41666667 C3.33333333,5.18654167 3.519875,5 3.75,5 L6.25,5 Z" id="形状"></path>
                        </g>
                    </g>
                </g>
            </g>
        </g>
    </g>
</svg>