<svg width="16px" height="16px" viewBox="0 0 16 16" version="1.1" xmlns="http://www.w3.org/2000/svg" xmlns:xlink="http://www.w3.org/1999/xlink">
    <g id="页面-1" stroke="none" stroke-width="1" fill="none" fill-rule="evenodd" opacity="0.95">
        <g id="7博客详情页备份-4" transform="translate(-439.000000, -1427.000000)" fill="#000000" fill-rule="nonzero">
            <g id="编组-14" transform="translate(325.000000, 1419.000000)">
                <g id="编组-9" transform="translate(114.000000, 8.000000)">
                    <path d="M14.1656987,5.09482522 L9.43656107,5.09482522 C9.66113225,4.30454038 9.77484641,3.60225543 9.77484641,2.9839704 C9.77484641,1.5811148 8.49256211,0.237687698 7.26513488,0.415973217 C6.18285036,0.573115901 5.66627949,1.48568633 5.66627949,2.65768504 L5.66627949,3.71654102 C5.66627949,5.07482525 4.62685206,6.23310969 3.30513923,6.36053812 L1.20285582,6.35710955 C0.538536895,6.35710955 0,6.89564645 0,7.55996537 L0,14.505672 C0,15.1702427 0.538285123,15.7085279 1.20285582,15.7085279 L12.8491288,15.7085279 C13.7304461,15.7085279 14.4872294,15.0818473 14.6514125,14.2159581 L15.9679825,7.27025141 C16.06957,6.73355693 15.9266832,6.17950952 15.5782067,5.75888487 C15.2297302,5.33826022 14.711923,5.09482455 14.1656987,5.09482522 Z M1.14285589,14.505672 L1.14285589,7.55996537 C1.14285589,7.52682255 1.169713,7.49996544 1.20285582,7.49996544 L2.57142575,7.49996544 L2.57142575,14.565672 L1.20285582,14.565672 C1.16971877,14.565672 1.14285589,14.5388091 1.14285589,14.505672 L1.14285589,14.505672 Z M14.8451266,7.05768021 L13.5285566,14.0033869 C13.4665226,14.3296713 13.1812578,14.565672 12.8491288,14.565672 L3.71428164,14.565672 L3.71428164,7.44967978 C5.50724527,7.1073977 6.80536895,5.54130831 6.80913538,3.71596959 L6.80913538,2.65768504 C6.80913538,1.98682864 7.02456372,1.6056862 7.4291347,1.54740055 C7.91199132,1.47711491 8.63199052,2.23197122 8.63199052,2.98454183 C8.63199052,3.65082681 8.46227643,4.48454018 8.11656252,5.47939623 C8.05589304,5.65413126 8.08355439,5.84742474 8.19079624,5.99813075 C8.2980381,6.14883676 8.47159405,6.23831215 8.65656193,6.23825254 L14.1656987,6.23825254 C14.3714821,6.23826706 14.5665654,6.32994206 14.6979132,6.48835473 C14.8292609,6.6467674 14.883222,6.85545375 14.8451266,7.05768021 Z" id="形状"></path>
                </g>
            </g>
        </g>
    </g>
</svg>