<?xml version="1.0" encoding="UTF-8"?>
<svg width="16px" height="16px" viewBox="0 0 16 16" version="1.1" xmlns="http://www.w3.org/2000/svg" xmlns:xlink="http://www.w3.org/1999/xlink">
    <title>编组 63备份</title>
    <g id="sofa" stroke="none" stroke-width="1" fill="none" fill-rule="evenodd">
        <g id="首页备份-46" transform="translate(-268, -2615)">
            <g id="编组-74" transform="translate(-6, 2449)">
                <g id="编组-63备份" transform="translate(274, 166)">
                    <rect id="矩形" x="0" y="0" width="16" height="16"></rect>
                    <g id="share-internal" transform="translate(2, 1.3333)" fill="#FFFFFF" opacity="0.65">
                        <path d="M1,10.9665121 C1.18409333,10.9665121 1.33333333,11.1157454 1.33333333,11.2998454 L1.33333333,12.2998454 L10.6666667,12.2998454 L10.6666667,11.2998454 C10.6666667,11.1157454 10.8159,10.9665121 11,10.9665121 L11.6666667,10.9665121 C11.8507667,10.9665121 12,11.1157454 12,11.2998454 L12,12.9665121 C12,13.3346787 11.7015333,13.6331787 11.3333333,13.6331787 L0.666666667,13.6331787 C0.298476667,13.6331787 0,13.3346787 0,12.9665121 L0,11.2998454 C0,11.1157454 0.14924,10.9665121 0.333333333,10.9665121 L1,10.9665121 Z M8.87096667,0.0699020633 L8.90236667,0.0976320633 L12.2022,3.39747873 C12.3223667,3.51761206 12.3316,3.70671206 12.2299333,3.83747873 L12.2022,3.86887873 L8.90236667,7.16871206 C8.7822,7.2888454 8.59313333,7.29811206 8.46236667,7.19641206 L8.43096667,7.16871206 L7.95956667,6.69727873 C7.8394,6.5771454 7.83016667,6.3880454 7.93183333,6.25727873 L7.95956667,6.22587873 L9.885,4.30001206 L9.71936667,4.3011454 C7.80796667,4.3253454 6.2833,4.68871206 4.9975,5.38887873 C3.7319,6.0780454 2.74646667,7.08137873 2.0696,8.37001206 C1.96076667,8.57717873 1.86023333,8.7904454 1.768,9.01041206 L1.73056667,9.10251206 C1.69713333,9.1869454 1.6581,9.29061206 1.6135,9.4135454 C1.56566667,9.54537873 1.4404,9.63317873 1.30015667,9.63317873 L0.59267,9.63317873 C0.40857,9.63317873 0.25933,9.4839454 0.25933,9.2998454 C0.25933,9.26477873 0.264863333,9.22991206 0.275723333,9.19657873 L0.311256667,9.09027873 C0.47544,8.61461206 0.670003333,8.1663454 0.893806667,7.74121206 C1.69453333,6.2202454 2.86956667,5.0265454 4.36676667,4.21311206 C5.8553,3.40441206 7.6322,2.9715454 9.88553333,2.9665454 L7.95956667,1.04043873 C7.8394,0.92027873 7.83016667,0.731202063 7.93183333,0.60043873 L7.95956667,0.569035397 L8.43096667,0.0976320633 C8.5411,-0.0125179367 8.70916667,-0.02946127 8.83713333,0.0467920633 L8.87096667,0.0699020633 Z" id="形状"></path>
                    </g>
                </g>
            </g>
        </g>
    </g>
</svg>