<svg width="26px" height="29px" viewBox="0 0 26 29" version="1.1" xmlns="http://www.w3.org/2000/svg" xmlns:xlink="http://www.w3.org/1999/xlink">
    <defs>
        <linearGradient x1="52.6662558%" y1="95.7312514%" x2="35.7492678%" y2="11.0078657%" id="linearGradient-wxw43fh1xd-1">
            <stop stop-color="#9822E4" offset="0%"></stop>
            <stop stop-color="#E643FA" offset="86.0585504%"></stop>
            <stop stop-color="#F876FF" offset="100%"></stop>
        </linearGradient>
        <path d="M15.9275871,1.54432572 L15.936122,1.5594269 L15.9445709,1.57457632 L5.01248933,7.79418913 L7.699,9.304 L16.5402359,4.57979689 L17.4070856,4.08488925 C17.4171462,4.0791454 17.4272394,4.07345885 17.4373647,4.06782987 C18.9115017,3.24830744 20.7708801,3.77897746 21.5904026,5.25311453 L10.875,11.088 L13.739,12.697 L22.582271,7.0756187 C23.6861624,6.4463624 25.0844138,6.84311697 25.7053527,7.96179484 C25.8984381,8.30965565 25.9998668,8.70204694 25.9998668,9.10116416 L25.9998668,19.9436637 C25.9998668,21.291301 24.9975498,22.4285957 23.6605964,22.5979534 L22.9421516,22.6889619 L22.9421516,10.4257286 L20.457252,12.0257475 L20.457758,23.6880152 C20.457758,24.9545623 19.4310187,25.9813016 18.1644716,25.9813016 L17.59115,25.9813016 L17.590252,13.8727475 L15.106,15.473 L15.1067564,27.0588825 C15.1067564,28.1284761 14.2511403,28.9955529 13.1956844,28.9955529 C12.8696714,28.9955529 12.5490782,28.9110348 12.2643947,28.7500365 L1.63270516,23.3171586 C0.159863707,22.5645249 -0.423980046,20.7604209 0.328653641,19.2875794 L0.372104915,19.2057013 L12.0490412,25.0797183 L12.049,22.086 L1.98952173,16.7675786 C0.51279311,15.9867912 -0.0513787599,14.1567129 0.729408593,12.6799843 L0.744416289,12.6519572 L0.759717752,12.6240895 L12.049,18.593 L12.0490412,15.2566254 L1.7391964,9.45898637 C1.44132502,9.2850324 1.19527431,9.0328708 1.02697438,8.72907568 C0.510285962,7.79641091 0.837507835,6.61586749 1.75784488,6.09225814 C6.19445786,3.56812633 9.52191759,1.67502747 11.7402241,0.412961569 L11.7628911,0.400065593 C13.2289188,-0.434004752 15.0935168,0.078297959 15.9275871,1.54432572 Z" id="path-wxw43fh1xd-2"></path>
        <linearGradient x1="50.6099966%" y1="31.6743333%" x2="50.2419846%" y2="73.0702907%" id="linearGradient-wxw43fh1xd-4">
            <stop stop-color="#8200B5" offset="0%"></stop>
            <stop stop-color="#8200B5" stop-opacity="0" offset="100%"></stop>
        </linearGradient>
        <linearGradient x1="50.6028666%" y1="31.6743333%" x2="50.2391561%" y2="73.0702907%" id="linearGradient-wxw43fh1xd-5">
            <stop stop-color="#8200B5" offset="0%"></stop>
            <stop stop-color="#8200B5" stop-opacity="0" offset="100%"></stop>
        </linearGradient>
        <linearGradient x1="90.8235257%" y1="50%" x2="3.24041867%" y2="52.9415572%" id="linearGradient-wxw43fh1xd-6">
            <stop stop-color="#DD3FF7" stop-opacity="0" offset="0%"></stop>
            <stop stop-color="#CA23E4" offset="100%"></stop>
        </linearGradient>
        <linearGradient x1="74.3272776%" y1="35.8586031%" x2="19.6895996%" y2="19.3309621%" id="linearGradient-wxw43fh1xd-7">
            <stop stop-color="#B800D1" stop-opacity="0" offset="0%"></stop>
            <stop stop-color="#AE00C5" offset="100%"></stop>
        </linearGradient>
        <linearGradient x1="97.0070676%" y1="71.8003287%" x2="11.3661868%" y2="30.5044309%" id="linearGradient-wxw43fh1xd-8">
            <stop stop-color="#940EC7" offset="0%"></stop>
            <stop stop-color="#C435F0" stop-opacity="0" offset="100%"></stop>
        </linearGradient>
    </defs>
    <g id="页面-1" stroke="none" stroke-width="1" fill="none" fill-rule="evenodd">
        <g id="首页" transform="translate(-24.000000, -18.000000)">
            <g id="编组-4" transform="translate(24.000133, 16.000000)">
                <g id="路径-6-copy-2" transform="translate(0.000000, 2.004447)">
                    <mask id="mask-wxw43fh1xd-3" fill="white">
                        <use xlink:href="#path-wxw43fh1xd-2"></use>
                    </mask>
                    <use id="Mask" fill="url(#linearGradient-wxw43fh1xd-1)" fill-rule="nonzero" xlink:href="#path-wxw43fh1xd-2"></use>
                    <path d="M12.0490412,15.2684078 L13.03943,15.5167092 C14.3279076,16.0478608 15.1686754,17.3038563 15.1686754,18.6975193 L15.1686754,18.7421449 L15.1686754,18.7421449 L15.1686754,27.7893089 L12.0490412,26.3823006 L12.0490412,15.2684078 Z" id="Path-114-Copy-2" fill="url(#linearGradient-wxw43fh1xd-4)" opacity="0.69047619" mask="url(#mask-wxw43fh1xd-3)"></path>
                    <path d="M22.9421516,10.4227424 L23.8594661,10.2542707 C24.8889759,10.219744 25.7876765,10.946368 25.9694916,11.9602841 L26.0763097,12.5559692 L26.0763097,12.5559692 L26.0617858,22.9064645 L22.9421516,21.4994563 L22.9421516,10.4227424 Z" id="Path-114-Copy-2" fill="url(#linearGradient-wxw43fh1xd-5)" opacity="0.69047619" mask="url(#mask-wxw43fh1xd-3)"></path>
                    <polygon id="Path-41" fill="url(#linearGradient-wxw43fh1xd-6)" mask="url(#mask-wxw43fh1xd-3)" points="7.6326499 9.31647968 11.9297751 6.77228295 14.9765833 9.31647968 10.7681311 11.1500753"></polygon>
                    <path d="M6.16852974,12.7326226 C8.05429918,13.6181711 7.86496926,14.83948 8.18831704,15.006813 C8.70089861,15.2720748 9.14143095,17.098905 9.86115602,17.1695013 C10.6949216,17.2512836 11.6478081,10.8552079 10.3936906,10.4556578 C9.48069361,10.1647855 7.32719679,9.49121213 3.93320016,8.43493769 C3.30115407,10.3034548 4.04626393,11.7360164 6.16852974,12.7326226 Z" fill="url(#linearGradient-wxw43fh1xd-7)" mask="url(#mask-wxw43fh1xd-3)" transform="translate(7.357416, 12.802608) rotate(-347.000000) translate(-7.357416, -12.802608) "></path>
                    <polygon id="Path-43" fill="url(#linearGradient-wxw43fh1xd-8)" mask="url(#mask-wxw43fh1xd-3)" points="12.0699788 18.5615749 6.27140769 15.1359473 5.30588708 19.0963147 12.0699788 22.1120507"></polygon>
                </g>
            </g>
        </g>
    </g>
</svg>