<svg width="20px" height="20px" viewBox="0 0 20 20" version="1.1" xmlns="http://www.w3.org/2000/svg" xmlns:xlink="http://www.w3.org/1999/xlink">
    <g id="页面-1" stroke="none" stroke-width="1" fill="none" fill-rule="evenodd">
        <g id="最新消息" transform="translate(-20.000000, -278.000000)">
            <g id="编组-10" transform="translate(0.000000, 134.000000)">
                <g id="编组-9" transform="translate(20.000000, 142.000000)">
                    <g id="编组-12" transform="translate(0.000000, 2.000000)">
                        <rect id="矩形备份-4" x="0" y="0" width="20" height="20"></rect>
                        <g id="model-platform-(2)" transform="translate(1.250000, 1.250000)" fill="#000000" fill-rule="nonzero" opacity="0.25">
                            <path d="M13.1056633,15.204874 L9.25074659,17.233749 C9.11432992,17.3389573 8.94587159,17.4019573 8.75920492,17.3962906 C8.57257992,17.4019573 8.40407992,17.3389573 8.26766326,17.233749 L4.41274659,15.204874 C3.42949659,14.687374 4.20574659,13.212499 5.18899659,13.729999 C6.17224659,14.247499 5.39599659,15.7223323 4.41274659,15.204874 L0.454425758,13.1215406 C-0.528815908,12.6040406 0.247425758,11.1291656 1.23066742,11.6466656 L5.18899659,13.729999 L8.75920492,15.6090406 L12.3294133,13.729999 C13.3126633,13.212499 14.0889133,14.687374 13.1056633,15.204874 L12.3294133,13.729999 L13.1056633,15.204874 Z M4.41274659,15.204874 L5.18899659,13.729999 L4.41274659,15.204874 Z M13.1056633,11.454874 L9.25074659,13.483749 C9.11432992,13.5889573 8.94587159,13.6519573 8.75920492,13.6462906 C8.57257992,13.6519573 8.40407992,13.5889573 8.26766326,13.483749 L4.41274659,11.454874 C3.42949659,10.937374 4.20574659,9.46249896 5.18899659,9.97999896 C6.17224659,10.497499 5.39599659,11.972374 4.41274659,11.454874 L0.454425758,9.37154063 C-0.528815908,8.85404063 0.247425758,7.37916563 1.23066742,7.89666563 L5.18899659,9.97999896 L8.75920492,11.8590406 L12.3294133,9.97999896 C13.3126633,9.46249896 14.0889133,10.937374 13.1056633,11.454874 L12.3294133,9.97999896 L13.1056633,11.454874 Z M4.41274659,11.454874 L5.18899659,9.97999896 L4.41274659,11.454874 Z M12.3294133,9.97999896 L16.2877466,7.89666563 C17.2709966,7.37916563 18.0472466,8.85404063 17.0639966,9.37154063 L13.1056633,11.454874 C12.1224133,11.972374 11.3461633,10.497499 12.3294133,9.97999896 Z M12.3294133,13.729999 L16.2877466,11.6466656 C17.2709966,11.1291656 18.0472466,12.6040406 17.0639966,13.1215406 L13.1056633,15.204874 C12.1224133,15.7223323 11.3461633,14.247499 12.3294133,13.729999 Z M9.15824659,0.101753125 L17.2552466,4.51829063 C17.3254966,4.55662396 17.3832049,4.61433229 17.4215383,4.68458229 C17.5317466,4.88658229 17.4572883,5.13970729 17.2552466,5.24987396 L9.15824659,9.66641563 C8.90953826,9.80208229 8.60891326,9.80208229 8.36016326,9.66641563 L0.263159092,5.24987396 C0.0611424249,5.13970729 -0.0132992417,4.88658229 0.0968924249,4.68458229 C0.135204925,4.61433229 0.192925758,4.55662396 0.263159092,4.51829063 L8.36016326,0.101753125 C8.60891326,-0.0339177083 8.90953826,-0.0339177083 9.15824659,0.101753125 Z M3.07307992,4.88408229 L8.75920492,7.98562396 L14.4453299,4.88408229 L8.75920492,1.78256979 L3.07307992,4.88408229 Z" id="形状"></path>
                        </g>
                    </g>
                </g>
            </g>
        </g>
    </g>
</svg>