<svg width="1043px" height="72px" viewBox="0 0 1043 72" version="1.1" xmlns="http://www.w3.org/2000/svg" xmlns:xlink="http://www.w3.org/1999/xlink">
    <defs>
        <linearGradient x1="50%" y1="100%" x2="50%" y2="6.16297582e-31%" id="linearGradient-zk9i_vhrdb-1">
            <stop stop-color="#0077FF" offset="0%"></stop>
            <stop stop-color="#439BFF" offset="100%"></stop>
        </linearGradient>
    </defs>
    <g id="页面-1" stroke="none" stroke-width="1" fill="none" fill-rule="evenodd">
        <g id="首页" transform="translate(-199.000000, -134.000000)">
            <g id="编组-20" transform="translate(199.000000, 134.000000)">
                <polygon id="矩形" points="-2.73398311e-13 -1.04916076e-14 1043 0 1043 72 -2.73398311e-13 72"></polygon>
                <g transform="translate(14.000000, 8.000000)" fill="url(#linearGradient-zk9i_vhrdb-1)" fill-rule="nonzero" id="形状结合">
                    <path d="M65,54 C79.559633,54 88,49.0280112 88,29 C88,9.04201681 79.559633,4 65,4 C50.5107034,4 42,9.04201681 42,29 C42,49.0280112 50.5107034,54 65,54 Z M65,42.5154062 C58.3180428,42.5154062 56.7706422,39.4341737 56.7706422,29 C56.7706422,18.4257703 58.3180428,15.2745098 65,15.2745098 C71.6819572,15.2745098 73.2996942,18.4257703 73.2996942,29 C73.2996942,39.4341737 71.6819572,42.5154062 65,42.5154062 Z M128,16.1440922 L128,4 L96,4 L96,53 L110.057395,53 L110.057395,36.054755 L126.516556,36.054755 L126.516556,24.0518732 L110.057395,24.0518732 L110.057395,16.1440922 L128,16.1440922 Z M169.266409,53 L184,53 L166.416988,4 L147.722008,4 L130,53 L144.455598,53 L147.861004,42.6916427 L165.930502,42.6916427 L169.266409,53 Z M151.544402,31.3948127 L156.548263,16.073487 L157.382239,16.073487 L162.316602,31.3948127 L151.544402,31.3948127 Z M201.312115,54 C216.322382,54 221,48.3277311 221,38.6638655 C221,29.8403361 219.533881,25.9887955 207.455852,22.837535 C201.451745,21.2969188 200.404517,20.8067227 200.404517,18.5658263 C200.404517,16.254902 202.149897,15.2044818 206.61807,15.2044818 C210.457906,15.2044818 216.531828,16.1148459 218.556468,16.8851541 L218.556468,5.75070028 C215.833676,4.84033613 212.063655,4 205.989733,4 C194.400411,4 187,7.64145658 187,19.1260504 C187,27.7394958 189.513347,31.1008403 200.125257,33.5518207 C206.199179,35.022409 207.106776,36.2128852 207.106776,38.2436975 C207.106776,41.254902 206.338809,42.2352941 200.544148,42.2352941 C196.215606,42.2352941 190.560575,41.32493 187.349076,40.4145658 L187.349076,52.3893557 C190.770021,53.2296919 195.936345,54 201.312115,54 Z M14.312115,54 C29.3223819,54 34,48.3277311 34,38.6638655 C34,29.8403361 32.5338809,25.9887955 20.4558522,22.837535 C14.4517454,21.2969188 13.4045175,20.8067227 13.4045175,18.5658263 C13.4045175,16.254902 15.1498973,15.2044818 19.6180698,15.2044818 C23.4579055,15.2044818 29.5318275,16.1148459 31.5564682,16.8851541 L31.5564682,5.75070028 C28.8336756,4.84033613 25.063655,4 18.9897331,4 C7.40041068,4 0,7.64145658 0,19.1260504 C0,27.7394958 2.51334702,31.1008403 13.1252567,33.5518207 C19.1991786,35.022409 20.1067762,36.2128852 20.1067762,38.2436975 C20.1067762,41.254902 19.338809,42.2352941 13.5441478,42.2352941 C9.21560575,42.2352941 3.56057495,41.32493 0.349075975,40.4145658 L0.349075975,52.3893557 C3.77002053,53.2296919 8.93634497,54 14.312115,54 Z M264,32.0625 C264,20.5714286 260.349146,15 246.86907,15 C234.301708,15 227,19.0392857 227,34.5 C227,49.9607143 234.301708,54 246.237192,54 C253.749526,54 259.787476,52.6071429 262.104364,51.0053571 L262.104364,41.2553571 C259.857685,42.5785714 254.030361,43.9714286 248.905123,43.9714286 C244.060721,43.9714286 241.041746,42.6482143 240.26945,39.375 L263.578748,37.9821429 C263.789374,37.425 264,35.1267857 264,32.0625 Z M240.199241,30.3910714 C240.480076,25.725 242.44592,24.6803571 246.939279,24.6803571 C251.151803,24.6803571 252.204934,26.6303571 252.204934,29.4857143 L240.199241,30.3910714 Z M293.236994,15 C288.797688,15 285.398844,16.2436364 283.179191,22.1854545 L283.179191,15.6909091 L270,15.6909091 L270,53 L283.179191,53 L283.179191,33.5163636 C283.734104,28.3345455 288.312139,26.6763636 292.682081,26.6763636 L293.722543,26.6763636 L294,15 L293.236994,15 Z M308.527508,53 L325.187702,53 L339,16 L324.404531,16 L317.213592,39.2277778 L316.786408,39.2277778 L310.449838,16 L295,16 L308.527508,53 Z M378,32.0625 C378,20.5714286 374.349146,15 360.86907,15 C348.301708,15 341,19.0392857 341,34.5 C341,49.9607143 348.301708,54 360.237192,54 C367.749526,54 373.787476,52.6071429 376.104364,51.0053571 L376.104364,41.2553571 C373.857685,42.5785714 368.030361,43.9714286 362.905123,43.9714286 C358.060721,43.9714286 355.041746,42.6482143 354.26945,39.375 L377.578748,37.9821429 C377.789374,37.425 378,35.1267857 378,32.0625 Z M354.199241,30.3910714 C354.480076,25.725 356.44592,24.6803571 360.939279,24.6803571 C365.151803,24.6803571 366.204934,26.6303571 366.204934,29.4857143 L354.199241,30.3910714 Z M407.236994,15 C402.797688,15 399.398844,16.2436364 397.179191,22.1854545 L397.179191,15.6909091 L384,15.6909091 L384,53 L397.179191,53 L397.179191,33.5163636 C397.734104,28.3345455 402.312139,26.6763636 406.682081,26.6763636 L407.722543,26.6763636 L408,15 L407.236994,15 Z M426.214286,54 C427.857143,54 429.428571,53.8590078 431,53.5770235 L431,43.4960836 C430.214286,43.7075718 430,43.6370757 429.5,43.6370757 C427.285714,43.6370757 426.571429,42.7206266 426.571429,39.5483029 L426.571429,0 L413,0 L413,42.7206266 C413,50.4046997 415.571429,54 426.214286,54 Z M471,32.0625 C471,20.5714286 467.349146,15 453.86907,15 C441.301708,15 434,19.0392857 434,34.5 C434,49.9607143 441.301708,54 453.237192,54 C460.749526,54 466.787476,52.6071429 469.104364,51.0053571 L469.104364,41.2553571 C466.857685,42.5785714 461.030361,43.9714286 455.905123,43.9714286 C451.060721,43.9714286 448.041746,42.6482143 447.26945,39.375 L470.578748,37.9821429 C470.789374,37.425 471,35.1267857 471,32.0625 Z M447.199241,30.3910714 C447.480076,25.725 449.44592,24.6803571 453.939279,24.6803571 C458.151803,24.6803571 459.204934,26.6303571 459.204934,29.4857143 L447.199241,30.3910714 Z M489.818841,54 C499.975845,54 506,51.1241007 506,41.2338129 C506,34.4298561 504.528986,31.9748201 496.683575,29.7302158 C490.729469,28.0467626 489.748792,28.1169065 489.748792,26.7140288 C489.748792,25.3111511 490.23913,24.75 494.161836,24.75 C497.594203,24.75 502.217391,25.5917266 504.248792,26.1528777 L504.669082,16.2625899 C502.427536,15.4910072 498.154589,15 493.601449,15 C480.992754,15 477.280193,19.1384892 477.280193,27.0647482 C477.280193,33.5179856 479.101449,35.692446 486.94686,37.7266187 C492.200483,39.0593525 493.251208,39.5503597 493.251208,41.5143885 C493.251208,43.5485612 492.200483,43.8291367 488.908213,43.8291367 C485.475845,43.8291367 481.483092,43.1978417 477,41.8651079 L477,52.807554 C481.413043,53.7194245 484.985507,54 489.818841,54 Z M523.818841,54 C533.975845,54 540,51.1241007 540,41.2338129 C540,34.4298561 538.528986,31.9748201 530.683575,29.7302158 C524.729469,28.0467626 523.748792,28.1169065 523.748792,26.7140288 C523.748792,25.3111511 524.23913,24.75 528.161836,24.75 C531.594203,24.75 536.217391,25.5917266 538.248792,26.1528777 L538.669082,16.2625899 C536.427536,15.4910072 532.154589,15 527.601449,15 C514.992754,15 511.280193,19.1384892 511.280193,27.0647482 C511.280193,33.5179856 513.101449,35.692446 520.94686,37.7266187 C526.200483,39.0593525 527.251208,39.5503597 527.251208,41.5143885 C527.251208,43.5485612 526.200483,43.8291367 522.908213,43.8291367 C519.475845,43.8291367 515.483092,43.1978417 511,41.8651079 L511,52.807554 C515.413043,53.7194245 518.985507,54 523.818841,54 Z"></path>
                </g>
                <g id="koupleless·研发框架与平台" transform="translate(561.728000, 4.392000)" fill="#FFFFFF" fill-rule="nonzero" opacity="0.95">
                    <path d="M6.784,38.016 C13.056,38.016 13.632,36.992 13.632,31.104 C13.632,25.152 13.056,24.128 6.784,24.128 C0.384,24.128 0,25.152 0,31.104 C0,36.992 0.384,38.016 6.784,38.016 Z M80.704,26.432 L76.224,26.432 L76.224,13.12 L79.36,13.12 L79.36,3.008 L49.28,3.008 L49.28,13.12 L52.288,13.12 L52.288,26.432 L48.064,26.432 L48.064,36.544 L52.096,36.544 C51.776,44.992 50.368,48.704 46.272,54.656 L46.272,20.736 L37.568,20.736 C38.656,18.24 39.552,15.552 40.256,12.8 L46.976,12.8 L46.976,2.432 L24.384,2.432 L24.384,12.8 L29.632,12.8 C28.416,17.728 25.152,23.296 21.76,27.968 L22.912,41.728 L26.624,37.696 L26.624,56.832 L46.272,56.832 L46.272,56.128 L54.784,60.608 C59.904,52.8 61.376,48.384 61.696,36.544 L66.688,36.544 L66.688,59.712 L76.224,59.712 L76.224,36.544 L80.704,36.544 L80.704,26.432 Z M61.824,26.432 L61.824,13.12 L66.688,13.12 L66.688,26.432 L61.824,26.432 Z M38.4,46.656 L35.072,46.656 L35.072,30.976 L38.4,30.976 L38.4,46.656 Z M144.128,48.768 C138.56,47.808 133.632,46.592 129.344,45.056 C132.864,42.048 135.744,38.72 138.752,34.624 L138.752,24.832 L111.232,24.832 C111.808,23.296 112.384,21.696 112.896,20.096 L143.232,20.096 L143.232,10.304 L135.104,10.304 L137.92,7.744 C136.064,6.08 132.288,2.432 130.048,0.512 L123.648,6.208 C124.864,7.424 126.336,8.832 127.68,10.304 L115.584,10.304 C116.288,7.296 116.8,4.224 117.248,0.96 L107.008,0.256 C106.496,3.84 105.856,7.168 105.024,10.304 L98.496,10.304 C99.2,8.064 100.16,3.584 100.48,2.112 L90.816,1.408 C90.304,3.968 89.28,8.256 88.256,11.52 L88.32,20.096 L101.952,20.096 C98.112,29.824 92.672,37.696 84.992,45.696 L87.424,58.88 C89.792,56.64 92.096,54.464 94.208,52.096 L99.392,60.224 C107.648,57.472 114.048,54.848 119.616,51.776 C124.992,54.784 131.072,57.28 138.432,59.776 L144.128,48.768 Z M119.232,40.128 C116.416,38.272 113.792,36.096 111.424,33.536 L126.976,33.536 C124.608,36.096 122.048,38.272 119.232,40.128 Z M96.896,49.088 C99.456,46.016 101.696,42.816 103.936,39.424 C105.792,41.472 107.776,43.328 109.824,45.056 C105.984,46.592 101.76,47.872 96.896,49.088 Z M179.264,48.192 L179.264,12.096 L206.272,12.096 L206.272,1.984 L169.536,1.984 L169.536,27.456 C168.32,26.112 167.296,24.896 166.464,23.936 L164.544,25.664 L164.544,19.648 L168.128,19.648 L168.128,9.92 L164.544,9.92 L164.544,0.704 L155.072,0.448 L155.072,9.92 L150.4,9.92 L150.4,19.648 L154.944,19.648 C154.112,23.232 150.848,28.544 148.224,33.216 L149.76,47.424 C150.72,45.952 153.024,41.792 155.072,37.696 L155.072,59.776 L164.544,59.776 L164.544,34.816 L167.168,39.296 L169.536,36.608 L169.536,58.432 L207.936,58.432 L207.936,48.192 L179.264,48.192 Z M181.376,36.8 L181.376,45.632 L205.312,45.632 L205.312,36.8 L197.952,36.8 L197.952,33.536 L204.288,33.536 L204.288,26.048 L197.952,26.048 L197.952,22.784 L204.928,22.784 L204.928,14.592 L181.76,14.592 L181.76,22.784 L188.608,22.784 L188.608,26.048 L182.144,26.048 L182.144,33.536 L188.608,33.536 L188.608,36.8 L181.376,36.8 Z M219.264,29.76 C222.272,26.752 224.448,23.616 226.176,19.968 L228.48,28.608 L233.6,27.968 C239.296,27.264 241.216,26.368 241.536,19.456 L242.048,4.16 L228.928,4.16 C228.992,2.304 228.992,1.408 228.992,0.64 L219.968,0.384 L219.904,4.16 L214.08,4.16 L214.08,13.312 L219.2,13.312 C218.176,17.472 215.872,19.776 211.584,23.68 L219.264,29.76 Z M268.544,2.688 L244.928,2.688 L244.928,27.584 L268.544,27.584 L268.544,2.688 Z M259.968,18.176 L253.632,18.176 L253.632,12.224 L259.968,12.224 L259.968,18.176 Z M233.472,13.312 L233.216,15.424 C233.024,18.24 232.128,18.752 229.568,19.008 L226.432,19.264 C227.136,17.536 227.776,15.552 228.224,13.312 L233.472,13.312 Z M271.744,48.32 C263.552,46.72 255.232,44.288 249.28,41.28 L269.184,41.28 L269.184,32 L246.784,32 L246.784,28.8 L236.864,28.544 L236.864,32 L214.464,32 L214.464,41.28 L233.792,41.28 C228.48,44.288 221.44,46.464 211.776,48.448 L216.704,59.136 C223.808,56.576 230.976,53.312 236.864,49.408 L236.864,60.032 L246.784,60.032 L246.784,49.472 C252.928,53.568 260.16,56.64 267.072,59.136 L271.744,48.32 Z M331.968,16.192 L331.968,6.4 L294.848,6.4 L295.424,0.896 L284.736,0.576 L281.792,31.872 L318.72,31.872 L318.4,44.416 C318.208,48.576 317.312,49.216 314.176,49.408 L308.288,49.856 L311.424,60.416 L318.08,59.904 C326.592,59.2 328.832,57.472 329.152,48.192 L330.048,21.824 L293.312,21.824 L293.888,16.192 L331.968,16.192 Z M315.648,36.672 L276.864,36.672 L276.864,46.976 L315.648,46.976 L315.648,36.672 Z M397.184,31.488 L373.888,31.488 L373.888,12.352 L394.88,12.352 L394.88,2.176 L342.208,2.176 L342.208,12.352 L363.2,12.352 L363.2,31.488 L339.904,31.488 L339.904,41.728 L363.2,41.728 L363.2,59.776 L373.888,59.776 L373.888,41.728 L397.184,41.728 L397.184,31.488 Z M383.936,31.104 C386.56,27.968 392,20.736 393.536,18.368 L385.408,12.8 C383.744,15.488 378.56,22.592 376.128,25.536 L383.936,31.104 Z M343.296,18.304 C345.024,20.416 350.4,27.52 352.768,31.232 L360.768,25.024 C358.336,21.568 353.152,15.04 351.168,12.864 L343.296,18.304 Z M449.344,24.896 C451.072,26.752 452.544,28.48 453.824,30.016 L461.568,22.272 C455.04,15.936 446.464,7.68 442.176,4.096 L435.392,10.048 C436.672,11.328 438.464,13.12 440.448,15.232 L422.912,16 C427.2,11.904 432.768,5.504 435.84,1.6 L423.104,0 C419.52,5.568 414.912,10.048 411.52,12.864 C408.64,15.232 406.592,16 402.368,17.024 L405.12,27.328 C408.128,26.816 412.928,26.432 416.896,26.24 C422.4,25.984 440.32,25.152 449.344,24.896 Z M408.512,58.944 L455.104,58.944 L455.104,30.4 L408.512,30.4 L408.512,58.944 Z M418.88,40.064 L444.48,40.064 L444.48,49.152 L418.88,49.152 L418.88,40.064 Z" id="形状结合"></path>
                </g>
            </g>
        </g>
    </g>
</svg>