<svg width="1200px" height="556px" viewBox="0 0 1200 556" version="1.1" xmlns="http://www.w3.org/2000/svg" xmlns:xlink="http://www.w3.org/1999/xlink">
    <defs>
        <linearGradient x1="2.51195109%" y1="27.9029693%" x2="100%" y2="74.006448%" id="linearGradient-rcmrlfv22p-1">
            <stop stop-color="#FFFFFF" stop-opacity="0.06" offset="0%"></stop>
            <stop stop-color="#FFFFFF" stop-opacity="0.04" offset="100%"></stop>
        </linearGradient>
        <linearGradient x1="20.4264323%" y1="12.0266385%" x2="79.0779903%" y2="89.533944%" id="linearGradient-rcmrlfv22p-2">
            <stop stop-color="#20262E" offset="0%"></stop>
            <stop stop-color="#0F141C" offset="100%"></stop>
        </linearGradient>
        <circle id="path-rcmrlfv22p-3" cx="36" cy="36" r="36"></circle>
        <filter x="-5.6%" y="-2.8%" width="111.1%" height="111.1%" filterUnits="objectBoundingBox" id="filter-rcmrlfv22p-4">
            <feOffset dx="0" dy="2" in="SourceAlpha" result="shadowOffsetOuter1"></feOffset>
            <feGaussianBlur stdDeviation="1" in="shadowOffsetOuter1" result="shadowBlurOuter1"></feGaussianBlur>
            <feColorMatrix values="0 0 0 0 0.243091954   0 0 0 0 0.286221553   0 0 0 0 0.372480752  0 0 0 1 0" type="matrix" in="shadowBlurOuter1"></feColorMatrix>
        </filter>
        <filter x="-6.2%" y="-3.5%" width="112.5%" height="112.5%" filterUnits="objectBoundingBox" id="filter-rcmrlfv22p-5">
            <feGaussianBlur stdDeviation="1.5" in="SourceAlpha" result="shadowBlurInner1"></feGaussianBlur>
            <feOffset dx="0" dy="2" in="shadowBlurInner1" result="shadowOffsetInner1"></feOffset>
            <feComposite in="shadowOffsetInner1" in2="SourceAlpha" operator="arithmetic" k2="-1" k3="1" result="shadowInnerInner1"></feComposite>
            <feColorMatrix values="0 0 0 0 0   0 0 0 0 0   0 0 0 0 0  0 0 0 0.4 0" type="matrix" in="shadowInnerInner1"></feColorMatrix>
        </filter>
        <linearGradient x1="2.51195109%" y1="3.97688437%" x2="100%" y2="100%" id="linearGradient-rcmrlfv22p-6">
            <stop stop-color="#00DADA" offset="0%"></stop>
            <stop stop-color="#009FC5" offset="100%"></stop>
        </linearGradient>
        <path d="M24.2495385,1.62212516 C26.8990718,4.27163183 26.1169385,8.49223183 23.2495385,12.9356985 C26.1169385,17.3794985 26.8990718,21.6000318 24.2495385,24.2495652 C21.6000052,26.8990985 17.3794718,26.1169652 12.9360052,23.2494985 C8.49220516,26.1169652 4.27167183,26.8990985 1.62212516,24.2495652 C-1.02739484,21.6000318 -0.245281507,17.3794985 2.62215849,12.9359652 C-0.245281507,8.49223183 -1.02739484,4.27163183 1.62212516,1.62212516 C4.27167183,-1.02739484 8.49220516,-0.245281507 12.9356718,2.62215849 C17.3794718,-0.245281507 21.6000052,-1.02739484 24.2495385,1.62212516 Z M21.5682718,15.2725652 L21.5253385,15.3250318 C20.6518052,16.4218985 19.6676718,17.5176985 18.5926718,18.5926985 C17.5004718,19.6848985 16.3867385,20.6833652 15.2722718,21.5672985 C18.4547385,23.4087652 21.0378718,23.6900318 22.3639385,22.3638985 C23.6900052,21.0378318 23.4088052,18.4547652 21.5682718,15.2725652 Z M4.25033849,15.3648985 L4.30387183,15.2716318 C5.18793849,16.3862985 6.18653849,17.5002318 7.27900516,18.5926985 C8.37133849,19.6850985 9.48527183,20.6836318 10.5994052,21.5680985 C7.41707183,23.4087652 4.83387183,23.6900318 3.50774516,22.3638985 C2.19450516,21.0506985 2.45758516,18.5046985 4.25033849,15.3648985 Z M12.9356718,5.86049849 L12.9086718,5.88103183 C11.7056052,6.78583183 10.4481385,7.88103183 9.16460516,9.16463183 C7.87153849,10.4576985 6.76960516,11.7242985 5.86093849,12.9354318 C6.76920516,14.1469652 7.87133849,15.4137652 9.16460516,16.7070985 C10.4576718,18.0001652 11.7242718,19.1020985 12.9354718,20.0107652 C14.1469385,19.1024318 15.4138052,18.0003652 16.7070718,16.7070985 C18.0003385,15.4137652 19.1024052,14.1469652 20.0112052,12.9356318 C19.1020718,11.7242985 18.0001385,10.4576985 16.7070718,9.16463183 C15.4138052,7.87129849 14.1469385,6.76923183 12.9356718,5.86049849 Z M15.6024718,12.9358318 C15.6024718,11.4630985 14.4086052,10.2691652 12.9358052,10.2691652 C11.4630718,10.2691652 10.2691385,11.4630985 10.2691385,12.9358318 C10.2691385,14.4085652 11.4630718,15.6024985 12.9358052,15.6024985 C14.4086052,15.6024985 15.6024718,14.4085652 15.6024718,12.9358318 Z M3.50774516,3.50774516 C2.18161183,4.83389849 2.46290516,7.41709849 4.30360516,10.5994318 C5.18800516,9.48523183 6.18660516,8.37136516 7.27900516,7.27896516 C8.35400516,6.20396516 9.44980516,5.21983183 10.5466052,4.34629849 L10.5994052,4.30363183 C7.41707183,2.46290516 4.83387183,2.18161849 3.50774516,3.50774516 Z M15.2716052,4.30389849 L15.3648718,4.25036516 C18.5047385,2.45758516 21.0506718,2.19450516 22.3639385,3.50774516 C23.6900718,4.83389849 23.4087385,7.41709849 21.5676718,10.5998985 C20.6836718,9.48523183 19.6850718,8.37136516 18.5926718,7.27896516 C17.5002718,6.18656516 16.3862718,5.18789849 15.2716052,4.30389849 Z" id="path-rcmrlfv22p-7"></path>
        <filter x="-65.7%" y="-50.2%" width="231.4%" height="231.4%" filterUnits="objectBoundingBox" id="filter-rcmrlfv22p-8">
            <feOffset dx="0" dy="4" in="SourceAlpha" result="shadowOffsetOuter1"></feOffset>
            <feGaussianBlur stdDeviation="5" in="shadowOffsetOuter1" result="shadowBlurOuter1"></feGaussianBlur>
            <feColorMatrix values="0 0 0 0 0   0 0 0 0 0   0 0 0 0 0  0 0 0 0.1 0" type="matrix" in="shadowBlurOuter1"></feColorMatrix>
        </filter>
        <circle id="path-rcmrlfv22p-9" cx="191" cy="64" r="36"></circle>
        <filter x="-5.6%" y="-2.8%" width="111.1%" height="111.1%" filterUnits="objectBoundingBox" id="filter-rcmrlfv22p-10">
            <feOffset dx="0" dy="2" in="SourceAlpha" result="shadowOffsetOuter1"></feOffset>
            <feGaussianBlur stdDeviation="1" in="shadowOffsetOuter1" result="shadowBlurOuter1"></feGaussianBlur>
            <feColorMatrix values="0 0 0 0 0.243091954   0 0 0 0 0.286221553   0 0 0 0 0.372480752  0 0 0 1 0" type="matrix" in="shadowBlurOuter1"></feColorMatrix>
        </filter>
        <filter x="-6.2%" y="-3.5%" width="112.5%" height="112.5%" filterUnits="objectBoundingBox" id="filter-rcmrlfv22p-11">
            <feGaussianBlur stdDeviation="1.5" in="SourceAlpha" result="shadowBlurInner1"></feGaussianBlur>
            <feOffset dx="0" dy="2" in="shadowBlurInner1" result="shadowOffsetInner1"></feOffset>
            <feComposite in="shadowOffsetInner1" in2="SourceAlpha" operator="arithmetic" k2="-1" k3="1" result="shadowInnerInner1"></feComposite>
            <feColorMatrix values="0 0 0 0 0   0 0 0 0 0   0 0 0 0 0  0 0 0 0.4 0" type="matrix" in="shadowInnerInner1"></feColorMatrix>
        </filter>
        <linearGradient x1="2.51195109%" y1="11.9643672%" x2="100%" y2="91.322314%" id="linearGradient-rcmrlfv22p-12">
            <stop stop-color="#FE6CCF" offset="0%"></stop>
            <stop stop-color="#F75594" offset="100%"></stop>
        </linearGradient>
        <path d="M28,0 C28.7364,0 29.3333333,0.596953333 29.3333333,1.33333333 L29.3333333,25.3333333 C29.3333333,26.0697333 28.7364,26.6666667 28,26.6666667 L1.33333333,26.6666667 C0.596953333,26.6666667 0,26.0697333 0,25.3333333 L0,1.33333333 C0,0.596953333 0.596953333,0 1.33333333,0 L28,0 Z M26.6666667,2.66666667 L2.66666667,2.66666667 L2.66666667,24 L26.6666667,24 L26.6666667,2.66666667 Z M15.1102667,6.00713333 L16.2934,6.13833333 C16.6593333,6.17893333 16.9231333,6.50846667 16.8825333,6.8744 C16.8819333,6.88006667 16.8812,6.88566667 16.8804667,6.89126667 L15.1669333,19.4206 C15.1179333,19.7788667 14.7922667,20.0327333 14.4329333,19.9928667 L13.2497333,19.8616667 C12.8838,19.8210667 12.6200667,19.4915333 12.6606667,19.1256 C12.6612667,19.1199333 12.6619333,19.1143333 12.6627333,19.1087333 L14.3762667,6.5794 C14.4252667,6.22113333 14.7508667,5.96726667 15.1102667,6.00713333 Z M10.0592,9.30653333 L10.8955333,10.0826 C11.1654667,10.333 11.1812,10.7548 10.9308,11.0247333 C10.9268,11.029 10.9228,11.0332 10.9187333,11.0374 L8.61866667,13.3893333 L10.9187333,15.7412667 C11.1761333,16.0044667 11.1714667,16.4265333 10.9082,16.684 L10.8955333,16.6960667 L10.0592,17.4720667 C9.7958,17.7164667 9.38613333,17.7081333 9.13286667,17.4532667 L5.56173333,13.8592 C5.30340667,13.5992 5.30340667,13.1794 5.56173333,12.9194 L9.13286667,9.32533333 C9.38613333,9.07046667 9.7958,9.06213333 10.0592,9.30653333 Z M20.2004667,9.32533333 L23.7716,12.9194 C24.0299333,13.1794 24.0299333,13.5992 23.7716,13.8592 L20.2004667,17.4532667 C19.9472,17.7081333 19.5375333,17.7164667 19.2741333,17.4720667 L18.4378,16.6960667 C18.1678667,16.4456 18.1521333,16.0238 18.4025333,15.7539333 C18.4065333,15.7496 18.4105333,15.7454 18.4146,15.7412667 L20.7146667,13.3893333 L18.4146,11.0374 C18.1572,10.7741333 18.1618667,10.3520667 18.4251333,10.0946667 C18.4292667,10.0905333 18.4335333,10.0865333 18.4378,10.0826 L19.2741333,9.30653333 C19.5375333,9.06213333 19.9472,9.07046667 20.2004667,9.32533333 Z" id="path-rcmrlfv22p-13"></path>
        <filter x="-58.0%" y="-48.8%" width="215.9%" height="227.5%" filterUnits="objectBoundingBox" id="filter-rcmrlfv22p-14">
            <feOffset dx="0" dy="4" in="SourceAlpha" result="shadowOffsetOuter1"></feOffset>
            <feGaussianBlur stdDeviation="5" in="shadowOffsetOuter1" result="shadowBlurOuter1"></feGaussianBlur>
            <feColorMatrix values="0 0 0 0 0   0 0 0 0 0   0 0 0 0 0  0 0 0 0.1 0" type="matrix" in="shadowBlurOuter1"></feColorMatrix>
        </filter>
        <circle id="path-rcmrlfv22p-15" cx="36" cy="36" r="36"></circle>
        <filter x="-5.6%" y="-2.8%" width="111.1%" height="111.1%" filterUnits="objectBoundingBox" id="filter-rcmrlfv22p-16">
            <feOffset dx="0" dy="2" in="SourceAlpha" result="shadowOffsetOuter1"></feOffset>
            <feGaussianBlur stdDeviation="1" in="shadowOffsetOuter1" result="shadowBlurOuter1"></feGaussianBlur>
            <feColorMatrix values="0 0 0 0 0.243091954   0 0 0 0 0.286221553   0 0 0 0 0.372480752  0 0 0 1 0" type="matrix" in="shadowBlurOuter1"></feColorMatrix>
        </filter>
        <filter x="-6.2%" y="-3.5%" width="112.5%" height="112.5%" filterUnits="objectBoundingBox" id="filter-rcmrlfv22p-17">
            <feGaussianBlur stdDeviation="1.5" in="SourceAlpha" result="shadowBlurInner1"></feGaussianBlur>
            <feOffset dx="0" dy="2" in="shadowBlurInner1" result="shadowOffsetInner1"></feOffset>
            <feComposite in="shadowOffsetInner1" in2="SourceAlpha" operator="arithmetic" k2="-1" k3="1" result="shadowInnerInner1"></feComposite>
            <feColorMatrix values="0 0 0 0 0   0 0 0 0 0   0 0 0 0 0  0 0 0 0.4 0" type="matrix" in="shadowInnerInner1"></feColorMatrix>
        </filter>
        <linearGradient x1="2.51195109%" y1="8.25567743%" x2="100%" y2="95.3514739%" id="linearGradient-rcmrlfv22p-18">
            <stop stop-color="#FF7D5A" offset="0%"></stop>
            <stop stop-color="#FFA458" offset="100%"></stop>
        </linearGradient>
        <path d="M7.33333333,18 C10.2788667,18 12.6666667,20.3878 12.6666667,23.3333333 C12.6666667,24.1988667 12.4605333,25.0162 12.0946,25.7389333 C13.2682,26.3323333 14.5950667,26.6666667 16,26.6666667 C17.4049333,26.6666667 18.7318,26.3323333 19.9054,25.7389333 C19.5394667,25.0162 19.3333333,24.1988667 19.3333333,23.3333333 C19.3333333,20.3878 21.7211333,18 24.6666667,18 C24.6666667,14.912 23.0516,12.2011333 20.6201333,10.6661333 C20.8469333,10.274 21.0252,9.85026667 21.1468,9.40313333 C20.5308667,11.6679333 18.4599333,13.3333333 16,13.3333333 C13.5400667,13.3333333 11.4691333,11.6679333 10.8532,9.40313333 C10.9748,9.85026667 11.1530667,10.274 11.3798667,10.6661333 C8.9484,12.2011333 7.33333333,14.912 7.33333333,18 Z M4.68800667,18.7012 C4.67384667,18.4692667 4.66666667,18.2354667 4.66666667,18 C4.66666667,13.6689333 7.09613333,9.90526667 10.6666667,7.99746667 C10.6680667,5.05311333 13.0553333,2.66666667 16,2.66666667 C18.9446667,2.66666667 21.3319333,5.05311333 21.3333333,7.99746667 C24.9038667,9.90526667 27.3333333,13.6689333 27.3333333,18 C27.3333333,18.2354667 27.3261333,18.4692667 27.312,18.7012 C28.9178667,19.6203333 30,21.3504667 30,23.3333333 C30,26.2788667 27.6122,28.6666667 24.6666667,28.6666667 C23.5796,28.6666667 22.5684667,28.3414 21.7253333,27.7829333 C20.0451333,28.7684 18.0885333,29.3333333 16,29.3333333 C13.9114667,29.3333333 11.9548667,28.7684 10.2746667,27.7829333 C9.43153333,28.3414 8.4204,28.6666667 7.33333333,28.6666667 C4.38781333,28.6666667 2,26.2788667 2,23.3333333 C2,21.3504667 3.08210667,19.6203333 4.68800667,18.7012 Z M16,10.6666667 C17.4727333,10.6666667 18.6666667,9.47273333 18.6666667,8 C18.6666667,6.52724 17.4727333,5.33333333 16,5.33333333 C14.5272667,5.33333333 13.3333333,6.52724 13.3333333,8 C13.3333333,9.47273333 14.5272667,10.6666667 16,10.6666667 Z M24.6666667,26 C26.1394,26 27.3333333,24.8060667 27.3333333,23.3333333 C27.3333333,21.8606 26.1394,20.6666667 24.6666667,20.6666667 C23.1939333,20.6666667 22,21.8606 22,23.3333333 C22,24.8060667 23.1939333,26 24.6666667,26 Z M7.33333333,26 C8.80606667,26 10,24.8060667 10,23.3333333 C10,21.8606 8.80606667,20.6666667 7.33333333,20.6666667 C5.86057333,20.6666667 4.66666667,21.8606 4.66666667,23.3333333 C4.66666667,24.8060667 5.86057333,26 7.33333333,26 Z" id="path-rcmrlfv22p-19"></path>
        <filter x="-60.7%" y="-48.8%" width="221.4%" height="227.5%" filterUnits="objectBoundingBox" id="filter-rcmrlfv22p-20">
            <feOffset dx="0" dy="4" in="SourceAlpha" result="shadowOffsetOuter1"></feOffset>
            <feGaussianBlur stdDeviation="5" in="shadowOffsetOuter1" result="shadowBlurOuter1"></feGaussianBlur>
            <feColorMatrix values="0 0 0 0 0   0 0 0 0 0   0 0 0 0 0  0 0 0 0.1 0" type="matrix" in="shadowBlurOuter1"></feColorMatrix>
        </filter>
        <circle id="path-rcmrlfv22p-21" cx="191" cy="64" r="36"></circle>
        <filter x="-5.6%" y="-2.8%" width="111.1%" height="111.1%" filterUnits="objectBoundingBox" id="filter-rcmrlfv22p-22">
            <feOffset dx="0" dy="2" in="SourceAlpha" result="shadowOffsetOuter1"></feOffset>
            <feGaussianBlur stdDeviation="1" in="shadowOffsetOuter1" result="shadowBlurOuter1"></feGaussianBlur>
            <feColorMatrix values="0 0 0 0 0.243091954   0 0 0 0 0.286221553   0 0 0 0 0.372480752  0 0 0 1 0" type="matrix" in="shadowBlurOuter1"></feColorMatrix>
        </filter>
        <filter x="-6.2%" y="-3.5%" width="112.5%" height="112.5%" filterUnits="objectBoundingBox" id="filter-rcmrlfv22p-23">
            <feGaussianBlur stdDeviation="1.5" in="SourceAlpha" result="shadowBlurInner1"></feGaussianBlur>
            <feOffset dx="0" dy="2" in="shadowBlurInner1" result="shadowOffsetInner1"></feOffset>
            <feComposite in="shadowOffsetInner1" in2="SourceAlpha" operator="arithmetic" k2="-1" k3="1" result="shadowInnerInner1"></feComposite>
            <feColorMatrix values="0 0 0 0 0   0 0 0 0 0   0 0 0 0 0  0 0 0 0.4 0" type="matrix" in="shadowInnerInner1"></feColorMatrix>
        </filter>
        <linearGradient x1="50%" y1="0%" x2="50%" y2="100%" id="linearGradient-rcmrlfv22p-24">
            <stop stop-color="#4E99F0" offset="0%"></stop>
            <stop stop-color="#107BF4" offset="100%"></stop>
        </linearGradient>
        <circle id="path-rcmrlfv22p-25" cx="191" cy="64" r="36"></circle>
        <filter x="-5.6%" y="-2.8%" width="111.1%" height="111.1%" filterUnits="objectBoundingBox" id="filter-rcmrlfv22p-26">
            <feOffset dx="0" dy="2" in="SourceAlpha" result="shadowOffsetOuter1"></feOffset>
            <feGaussianBlur stdDeviation="1" in="shadowOffsetOuter1" result="shadowBlurOuter1"></feGaussianBlur>
            <feColorMatrix values="0 0 0 0 0.243091954   0 0 0 0 0.286221553   0 0 0 0 0.372480752  0 0 0 1 0" type="matrix" in="shadowBlurOuter1"></feColorMatrix>
        </filter>
        <filter x="-6.2%" y="-3.5%" width="112.5%" height="112.5%" filterUnits="objectBoundingBox" id="filter-rcmrlfv22p-27">
            <feGaussianBlur stdDeviation="1.5" in="SourceAlpha" result="shadowBlurInner1"></feGaussianBlur>
            <feOffset dx="0" dy="2" in="shadowBlurInner1" result="shadowOffsetInner1"></feOffset>
            <feComposite in="shadowOffsetInner1" in2="SourceAlpha" operator="arithmetic" k2="-1" k3="1" result="shadowInnerInner1"></feComposite>
            <feColorMatrix values="0 0 0 0 0   0 0 0 0 0   0 0 0 0 0  0 0 0 0.4 0" type="matrix" in="shadowInnerInner1"></feColorMatrix>
        </filter>
        <linearGradient x1="50%" y1="0%" x2="50%" y2="100%" id="linearGradient-rcmrlfv22p-28">
            <stop stop-color="#00D5D8" offset="0%"></stop>
            <stop stop-color="#00A5C7" offset="100%"></stop>
        </linearGradient>
        <circle id="path-rcmrlfv22p-29" cx="191" cy="64" r="36"></circle>
        <filter x="-5.6%" y="-2.8%" width="111.1%" height="111.1%" filterUnits="objectBoundingBox" id="filter-rcmrlfv22p-30">
            <feOffset dx="0" dy="2" in="SourceAlpha" result="shadowOffsetOuter1"></feOffset>
            <feGaussianBlur stdDeviation="1" in="shadowOffsetOuter1" result="shadowBlurOuter1"></feGaussianBlur>
            <feColorMatrix values="0 0 0 0 0.243091954   0 0 0 0 0.286221553   0 0 0 0 0.372480752  0 0 0 1 0" type="matrix" in="shadowBlurOuter1"></feColorMatrix>
        </filter>
        <filter x="-6.2%" y="-3.5%" width="112.5%" height="112.5%" filterUnits="objectBoundingBox" id="filter-rcmrlfv22p-31">
            <feGaussianBlur stdDeviation="1.5" in="SourceAlpha" result="shadowBlurInner1"></feGaussianBlur>
            <feOffset dx="0" dy="2" in="shadowBlurInner1" result="shadowOffsetInner1"></feOffset>
            <feComposite in="shadowOffsetInner1" in2="SourceAlpha" operator="arithmetic" k2="-1" k3="1" result="shadowInnerInner1"></feComposite>
            <feColorMatrix values="0 0 0 0 0   0 0 0 0 0   0 0 0 0 0  0 0 0 0.4 0" type="matrix" in="shadowInnerInner1"></feColorMatrix>
        </filter>
        <linearGradient x1="2.51195109%" y1="6.2300104%" x2="100%" y2="97.55218%" id="linearGradient-rcmrlfv22p-32">
            <stop stop-color="#FE6CCF" offset="0%"></stop>
            <stop stop-color="#F75594" offset="100%"></stop>
        </linearGradient>
        <path d="M14.6666667,0 C20.5639333,0 25.6483333,3.48057333 27.9776,8.49953333 L29.2396,8.16193333 C29.5952667,8.0666 29.9608,8.27766667 30.0561333,8.63333333 C30.0934667,8.77266667 30.0846,8.92033333 30.0308667,9.0542 L28.3753333,13.1788 C28.2381333,13.5204667 27.85,13.6862667 27.5082667,13.5491333 C27.4496667,13.5256 27.3946667,13.4938667 27.345,13.4548667 L23.8489333,10.7106667 C23.5593333,10.4832667 23.5088,10.0642 23.7361333,9.7746 C23.8252,9.66113333 23.9486667,9.5796 24.088,9.54226667 L25.3538,9.20353333 C23.366,5.32273333 19.3265333,2.66666667 14.6666667,2.66666667 C8.03926667,2.66666667 2.66666667,8.03926667 2.66666667,14.6666667 C2.66666667,21.2940667 8.03926667,26.6666667 14.6666667,26.6666667 C20.3774,26.6666667 25.1564667,22.6775333 26.3692,17.3338 L29.0914667,17.3336 C27.8373333,24.1604667 21.8561333,29.3333333 14.6666667,29.3333333 C6.56646667,29.3333333 0,22.7668667 0,14.6666667 C0,6.56646667 6.56646667,0 14.6666667,0 Z M15.5026,6.66666667 C15.8708,6.66666667 16.1692667,6.96513333 16.1692667,7.33333333 L16.1694,8.80173333 C16.8432,8.96026667 17.4502667,9.24186667 17.9894,9.64666667 C18.8881333,10.3214 19.3602,11.3025333 19.4035333,12.5750667 C19.4066667,12.6670667 19.3346667,12.7442 19.2426667,12.7472667 L19.2398,12.7474 L16.9244667,12.7474 C16.851,12.7474 16.7881333,12.6997333 16.7661333,12.6328667 L16.7581333,12.5907333 C16.7198667,11.955 16.4504,11.516 15.9420667,11.2524 C15.5925333,11.0728 15.1522,10.9818 14.6198,10.9818 C14.0309333,10.9818 13.5682667,11.0986667 13.2287333,11.3282 C12.9048667,11.5471333 12.7474,11.8443333 12.7474,12.237 C12.7474,12.5877333 12.8967333,12.8394 13.211,13.0145333 C13.4268,13.1392 13.9160667,13.2946667 14.6665333,13.4733333 L16.6508,13.9498667 C17.5421333,14.1634 18.2196,14.4510667 18.6838667,14.817 C19.4134667,15.3918667 19.7786667,16.2245333 19.7786667,17.2994667 C19.7786667,18.4001333 19.3551333,19.3198 18.5139333,20.0466667 C17.9078667,20.5703333 17.1254,20.9033333 16.1690667,21.0474667 L16.1692667,22 C16.1692667,22.3682 15.8708,22.6666667 15.5026,22.6666667 L14.1692667,22.6666667 C13.8010667,22.6666667 13.5026,22.3682 13.5026,22 L13.5016,21.0005333 C12.6488,20.8396 11.9317333,20.5286667 11.3518667,20.0665333 C10.4517333,19.3492 10,18.3594 10,17.112 C10,17.0199333 10.0746,16.9453333 10.1666667,16.9453333 L12.4635333,16.9453333 C12.5328667,16.9453333 12.5933333,16.9879333 12.6182,17.0498 L12.6286,17.0890667 C12.6976667,17.5872667 12.8307333,17.9526 13.0218667,18.1856667 C13.3762,18.6156 13.9984,18.8359333 14.9010667,18.8359333 C15.4513333,18.8359333 15.8942,18.7758667 16.2278667,18.6581333 C16.8353333,18.4415333 17.125,18.0575333 17.125,17.4792 C17.125,17.157 16.9884,16.9158667 16.7049333,16.7386667 C16.3904,16.547 15.8828,16.3727333 15.1848667,16.2199333 L13.9658667,15.9464 C12.7486667,15.6712 11.9035333,15.3709333 11.4240667,15.0386 C10.5999333,14.4744 10.1874667,13.5913333 10.1874667,12.4088667 C10.1874667,11.3308667 10.5821333,10.4292667 11.367,9.71526667 C11.9088,9.2224 12.621,8.90133333 13.5013333,8.74993333 L13.5026,7.33333333 C13.5026,6.96513333 13.8010667,6.66666667 14.1692667,6.66666667 L15.5026,6.66666667 Z" id="path-rcmrlfv22p-33"></path>
        <filter x="-56.5%" y="-44.3%" width="213.0%" height="215.9%" filterUnits="objectBoundingBox" id="filter-rcmrlfv22p-34">
            <feOffset dx="0" dy="4" in="SourceAlpha" result="shadowOffsetOuter1"></feOffset>
            <feGaussianBlur stdDeviation="5" in="shadowOffsetOuter1" result="shadowBlurOuter1"></feGaussianBlur>
            <feColorMatrix values="0 0 0 0 0   0 0 0 0 0   0 0 0 0 0  0 0 0 0.1 0" type="matrix" in="shadowBlurOuter1"></feColorMatrix>
        </filter>
    </defs>
    <g id="页面-1" stroke="none" stroke-width="1" fill="none" fill-rule="evenodd">
        <g id="首页" transform="translate(-120.000000, -1716.000000)">
            <g id="编组-37" transform="translate(120.000000, 1716.000000)">
                <g id="编组-33">
                    <path d="M16,0 L365,0 C373.836556,-1.623249e-15 381,7.163444 381,16 L381,248 C381,256.836556 373.836556,264 365,264 L16,264 C7.163444,264 1.082166e-15,256.836556 0,248 L0,16 C-1.082166e-15,7.163444 7.163444,1.623249e-15 16,0 Z" id="矩形备份-8" fill="url(#linearGradient-rcmrlfv22p-1)"></path>
                    <g id="编组-27" transform="translate(155.000000, 28.000000)">
                        <g id="椭圆形">
                            <use fill="black" fill-opacity="1" filter="url(#filter-rcmrlfv22p-4)" xlink:href="#path-rcmrlfv22p-3"></use>
                            <use fill="url(#linearGradient-rcmrlfv22p-2)" fill-rule="evenodd" xlink:href="#path-rcmrlfv22p-3"></use>
                            <use fill="black" fill-opacity="1" filter="url(#filter-rcmrlfv22p-5)" xlink:href="#path-rcmrlfv22p-3"></use>
                        </g>
                        <g id="编组-14" transform="translate(20.000000, 20.000000)">
                            <rect id="矩形备份-10" x="0" y="0" width="32" height="32"></rect>
                            <g id="形状" transform="translate(3.333333, 2.666667)">
                                <use fill="black" fill-opacity="1" filter="url(#filter-rcmrlfv22p-8)" xlink:href="#path-rcmrlfv22p-7"></use>
                                <use fill="url(#linearGradient-rcmrlfv22p-6)" fill-rule="evenodd" xlink:href="#path-rcmrlfv22p-7"></use>
                            </g>
                        </g>
                    </g>
                    <text id="应用构建发布慢" opacity="0.95" font-family="AlibabaPuHuiTiM, Alibaba PuHuiTi" font-size="24" font-weight="400" line-spacing="32" fill="#FFFFFF">
                        <tspan x="108" y="145">应用构建发布慢</tspan>
                    </text>
                    <text id="传统应用镜像化构建+发布速度很慢，通过模" opacity="0.5" font-family="PingFangSC-Regular, PingFang SC" font-size="14" font-weight="normal" line-spacing="24" fill="#FFFFFF">
                        <tspan x="74.765" y="179">传统应用镜像化构建+发布速度很慢，</tspan>
                        <tspan x="74.765" y="203">通过模块化方式，应用单次构建+发布</tspan>
                        <tspan x="90.669" y="227">耗时可从 5 分钟级减少到 1 分钟</tspan>
                    </text>
                </g>
                <g id="编组-33备份" transform="translate(410.000000, 0.000000)">
                    <path d="M16,0 L365,0 C373.836556,-1.623249e-15 381,7.163444 381,16 L381,248 C381,256.836556 373.836556,264 365,264 L16,264 C7.163444,264 1.082166e-15,256.836556 0,248 L0,16 C-1.082166e-15,7.163444 7.163444,1.623249e-15 16,0 Z" id="矩形备份-8" fill="url(#linearGradient-rcmrlfv22p-1)"></path>
                    <g id="椭圆形">
                        <use fill="black" fill-opacity="1" filter="url(#filter-rcmrlfv22p-10)" xlink:href="#path-rcmrlfv22p-9"></use>
                        <use fill="url(#linearGradient-rcmrlfv22p-2)" fill-rule="evenodd" xlink:href="#path-rcmrlfv22p-9"></use>
                        <use fill="black" fill-opacity="1" filter="url(#filter-rcmrlfv22p-11)" xlink:href="#path-rcmrlfv22p-9"></use>
                    </g>
                    <g id="编组-29" transform="translate(175.000000, 48.000000)">
                        <rect id="矩形备份-9" x="0" y="0" width="32" height="32"></rect>
                        <g id="形状" transform="translate(1.333333, 2.666667)">
                            <use fill="black" fill-opacity="1" filter="url(#filter-rcmrlfv22p-14)" xlink:href="#path-rcmrlfv22p-13"></use>
                            <use fill="url(#linearGradient-rcmrlfv22p-12)" fill-rule="evenodd" xlink:href="#path-rcmrlfv22p-13"></use>
                        </g>
                    </g>
                    <text id="SDK-升级繁琐" opacity="0.95" font-family="AlibabaPuHuiTiM, Alibaba PuHuiTi" font-size="24" font-weight="400" line-spacing="32" fill="#FFFFFF">
                        <tspan x="117" y="145">SDK 升级繁琐</tspan>
                    </text>
                    <text id="借助-Koupleless-将应" opacity="0.5" font-family="PingFangSC-Regular, PingFang SC" font-size="14" font-weight="normal" line-spacing="24" fill="#FFFFFF">
                        <tspan x="71.629" y="179">借助 Koupleless 将应用依赖尽可</tspan>
                        <tspan x="73.176" y="203">能下沉到基座 (类似业务 Sidecar)，可</tspan>
                        <tspan x="109.142" y="227">以实现 SDK 的无打扰升级</tspan>
                    </text>
                </g>
            </g>
            <g id="编组-33备份-2" transform="translate(939.000000, 1716.000000)">
                <path d="M16,0 L365,0 C373.836556,-1.623249e-15 381,7.163444 381,16 L381,248 C381,256.836556 373.836556,264 365,264 L16,264 C7.163444,264 1.082166e-15,256.836556 0,248 L0,16 C-1.082166e-15,7.163444 7.163444,1.623249e-15 16,0 Z" id="矩形备份-8" fill="url(#linearGradient-rcmrlfv22p-1)"></path>
                <g id="编组-35" transform="translate(155.000000, 28.000000)">
                    <g id="椭圆形">
                        <use fill="black" fill-opacity="1" filter="url(#filter-rcmrlfv22p-16)" xlink:href="#path-rcmrlfv22p-15"></use>
                        <use fill="url(#linearGradient-rcmrlfv22p-2)" fill-rule="evenodd" xlink:href="#path-rcmrlfv22p-15"></use>
                        <use fill="black" fill-opacity="1" filter="url(#filter-rcmrlfv22p-17)" xlink:href="#path-rcmrlfv22p-15"></use>
                    </g>
                    <g id="编组-17" transform="translate(20.000000, 20.000000)">
                        <g id="编组-32">
                            <rect id="矩形" x="0" y="0" width="32" height="32"></rect>
                            <g id="形状">
                                <use fill="black" fill-opacity="1" filter="url(#filter-rcmrlfv22p-20)" xlink:href="#path-rcmrlfv22p-19"></use>
                                <use fill="url(#linearGradient-rcmrlfv22p-18)" fill-rule="evenodd" xlink:href="#path-rcmrlfv22p-19"></use>
                            </g>
                        </g>
                        <g id="external-(4)" transform="translate(2.000000, 2.666667)"></g>
                    </g>
                </g>
                <text id="高昂的长尾应用资源开销" opacity="0.95" font-family="AlibabaPuHuiTiM, Alibaba PuHuiTi" font-size="24" font-weight="400" line-spacing="32" fill="#FFFFFF">
                    <tspan x="61" y="145">高昂的长尾应用资源开销</tspan>
                </text>
                <text id="通过-Koupleless-将多" opacity="0.5" font-family="PingFangSC-Regular, PingFang SC" font-size="14" font-weight="normal" line-spacing="24" fill="#FFFFFF">
                    <tspan x="71.629" y="179">通过 Koupleless 将多个应用合并</tspan>
                    <tspan x="72" y="203">部署在一起，可以实现大量的长尾应用</tspan>
                    <tspan x="156" y="227">服务器裁撤</tspan>
                </text>
            </g>
            <g id="编组-33备份-5" transform="translate(120.000000, 2008.000000)">
                <path d="M16,0 L365,0 C373.836556,-1.623249e-15 381,7.163444 381,16 L381,248 C381,256.836556 373.836556,264 365,264 L16,264 C7.163444,264 1.082166e-15,256.836556 0,248 L0,16 C-1.082166e-15,7.163444 7.163444,1.623249e-15 16,0 Z" id="矩形备份-8" fill="url(#linearGradient-rcmrlfv22p-1)"></path>
                <g id="椭圆形">
                    <use fill="black" fill-opacity="1" filter="url(#filter-rcmrlfv22p-22)" xlink:href="#path-rcmrlfv22p-21"></use>
                    <use fill="url(#linearGradient-rcmrlfv22p-2)" fill-rule="evenodd" xlink:href="#path-rcmrlfv22p-21"></use>
                    <use fill="black" fill-opacity="1" filter="url(#filter-rcmrlfv22p-23)" xlink:href="#path-rcmrlfv22p-21"></use>
                </g>
                <g id="编组-16" transform="translate(175.000000, 48.000000)">
                    <g id="编组-14备份">
                        <rect id="矩形备份-10" x="0" y="0" width="32" height="32"></rect>
                    </g>
                    <g id="hierarchy-(3)" transform="translate(1.333333, 0.666667)" fill="url(#linearGradient-rcmrlfv22p-24)">
                        <path d="M20,5.33333333 C20,2.38781333 17.6122,0 14.6666667,0 C11.7211333,0 9.33333333,2.38781333 9.33333333,5.33333333 C9.33333333,7.8186 11.0332667,9.90686667 13.3337333,10.4987333 L13.3333333,14.6666667 L5.33333333,14.6666667 C4.22876667,14.6666667 3.33333333,15.5620667 3.33333333,16.6666667 L3.3333,20.8599333 C1.40566,21.4336667 0,23.2193333 0,25.3333333 C0,27.9106667 2.08934,30 4.66666667,30 C7.244,30 9.33333333,27.9106667 9.33333333,25.3333333 C9.33333333,23.2196 7.928,21.4340667 6.00066667,20.8601333 L6,17.3333333 L23.3333333,17.3333333 L23.3333333,20.8599333 C21.4056667,21.4336667 20,23.2193333 20,25.3333333 C20,27.9106667 22.0893333,30 24.6666667,30 C27.244,30 29.3333333,27.9106667 29.3333333,25.3333333 C29.3333333,23.2196 27.928,21.4340667 26.0006667,20.8601333 L26,16.6666667 C26,15.5620667 25.1046,14.6666667 24,14.6666667 L16,14.6666667 L16.0002667,10.4986 C18.3004,9.90646667 20,7.81833333 20,5.33333333 Z M22.6666667,25.3333333 C22.6666667,24.2287333 23.5620667,23.3333333 24.6666667,23.3333333 C25.7712667,23.3333333 26.6666667,24.2287333 26.6666667,25.3333333 C26.6666667,26.4379333 25.7712667,27.3333333 24.6666667,27.3333333 C23.5620667,27.3333333 22.6666667,26.4379333 22.6666667,25.3333333 Z M4.66666667,23.3333333 C3.5621,23.3333333 2.66666667,24.2287333 2.66666667,25.3333333 C2.66666667,26.4379333 3.5621,27.3333333 4.66666667,27.3333333 C5.77126667,27.3333333 6.66666667,26.4379333 6.66666667,25.3333333 C6.66666667,24.2287333 5.77126667,23.3333333 4.66666667,23.3333333 Z M12,5.33333333 C12,3.86057333 13.1939333,2.66666667 14.6666667,2.66666667 C16.1394,2.66666667 17.3333333,3.86057333 17.3333333,5.33333333 C17.3333333,6.80606667 16.1394,8 14.6666667,8 C13.1939333,8 12,6.80606667 12,5.33333333 Z" id="形状"></path>
                    </g>
                </g>
                <text id="应用研发协作效率低下" opacity="0.95" font-family="AlibabaPuHuiTiM, Alibaba PuHuiTi" font-size="24" font-weight="400" line-spacing="32" fill="#FFFFFF">
                    <tspan x="72" y="145">应用研发协作效率低下</tspan>
                </text>
                <text id="通过-Koupleless-将应" opacity="0.5" font-family="PingFangSC-Regular, PingFang SC" font-size="14" font-weight="normal" line-spacing="24" fill="#FFFFFF">
                    <tspan x="64.629" y="179">通过 Koupleless 将应用快速划分成</tspan>
                    <tspan x="65.007" y="203">多个模块 (代码包)，且多个模块间可以同</tspan>
                    <tspan x="65" y="227">时迭代互不影响，进而大幅提升研发效率</tspan>
                </text>
            </g>
            <g id="编组-33备份-4" transform="translate(530.000000, 2008.000000)">
                <path d="M16,0 L365,0 C373.836556,-1.623249e-15 381,7.163444 381,16 L381,248 C381,256.836556 373.836556,264 365,264 L16,264 C7.163444,264 1.082166e-15,256.836556 0,248 L0,16 C-1.082166e-15,7.163444 7.163444,1.623249e-15 16,0 Z" id="矩形备份-8" fill="url(#linearGradient-rcmrlfv22p-1)"></path>
                <g id="椭圆形">
                    <use fill="black" fill-opacity="1" filter="url(#filter-rcmrlfv22p-26)" xlink:href="#path-rcmrlfv22p-25"></use>
                    <use fill="url(#linearGradient-rcmrlfv22p-2)" fill-rule="evenodd" xlink:href="#path-rcmrlfv22p-25"></use>
                    <use fill="black" fill-opacity="1" filter="url(#filter-rcmrlfv22p-27)" xlink:href="#path-rcmrlfv22p-25"></use>
                </g>
                <g id="编组-12" transform="translate(175.000000, 48.000000)">
                    <rect id="矩形备份-4" x="0" y="0" width="32" height="32"></rect>
                    <g id="model-platform-(2)" transform="translate(2.000000, 2.000000)" fill="url(#linearGradient-rcmrlfv22p-28)" fill-rule="nonzero">
                        <path d="M20.9690612,24.3277983 L14.8011945,27.5739983 C14.5829279,27.7423317 14.3133945,27.8431317 14.0147279,27.834065 C13.7161279,27.8431317 13.4465279,27.7423317 13.2282612,27.5739983 L7.06039455,24.3277983 C5.48719455,23.4997983 6.72919455,21.1399983 8.30239455,21.9679983 C9.87559455,22.7959983 8.63359455,25.1557317 7.06039455,24.3277983 L0.727081213,20.994465 C-0.846105453,20.166465 0.395881213,17.806665 1.96906788,18.634665 L8.30239455,21.9679983 L14.0147279,24.974465 L19.7270612,21.9679983 C21.3002612,21.1399983 22.5422612,23.4997983 20.9690612,24.3277983 L19.7270612,21.9679983 L20.9690612,24.3277983 Z M7.06039455,24.3277983 L8.30239455,21.9679983 L7.06039455,24.3277983 Z M20.9690612,18.3277983 L14.8011945,21.5739983 C14.5829279,21.7423317 14.3133945,21.8431317 14.0147279,21.834065 C13.7161279,21.8431317 13.4465279,21.7423317 13.2282612,21.5739983 L7.06039455,18.3277983 C5.48719455,17.4997983 6.72919455,15.1399983 8.30239455,15.9679983 C9.87559455,16.7959983 8.63359455,19.1557983 7.06039455,18.3277983 L0.727081213,14.994465 C-0.846105453,14.166465 0.395881213,11.806665 1.96906788,12.634665 L8.30239455,15.9679983 L14.0147279,18.974465 L19.7270612,15.9679983 C21.3002612,15.1399983 22.5422612,17.4997983 20.9690612,18.3277983 L19.7270612,15.9679983 L20.9690612,18.3277983 Z M7.06039455,18.3277983 L8.30239455,15.9679983 L7.06039455,18.3277983 Z M19.7270612,15.9679983 L26.0603945,12.634665 C27.6335945,11.806665 28.8755945,14.166465 27.3023945,14.994465 L20.9690612,18.3277983 C19.3958612,19.1557983 18.1538612,16.7959983 19.7270612,15.9679983 Z M19.7270612,21.9679983 L26.0603945,18.634665 C27.6335945,17.806665 28.8755945,20.166465 27.3023945,20.994465 L20.9690612,24.3277983 C19.3958612,25.1557317 18.1538612,22.7959983 19.7270612,21.9679983 Z M14.6531945,0.162805 L27.6083945,7.229265 C27.7207945,7.29059833 27.8131279,7.38293167 27.8744612,7.49533167 C28.0507945,7.81853167 27.9316612,8.22353167 27.6083945,8.39979833 L14.6531945,15.466265 C14.2552612,15.6833317 13.7742612,15.6833317 13.3762612,15.466265 L0.421054547,8.39979833 C0.0978278799,8.22353167 -0.0212787868,7.81853167 0.15502788,7.49533167 C0.21632788,7.38293167 0.308681213,7.29059833 0.421054547,7.229265 L13.3762612,0.162805 C13.7742612,-0.0542683333 14.2552612,-0.0542683333 14.6531945,0.162805 Z M4.91692788,7.81453167 L14.0147279,12.7769983 L23.1125279,7.81453167 L14.0147279,2.85211167 L4.91692788,7.81453167 Z" id="形状"></path>
                    </g>
                </g>
                <text id="中台业务资产沉淀困难" opacity="0.95" font-family="AlibabaPuHuiTiM, Alibaba PuHuiTi" font-size="24" font-weight="400" line-spacing="32" fill="#FFFFFF">
                    <tspan x="72" y="145">中台业务资产沉淀困难</tspan>
                </text>
                <text id="支持低成本将业务公共代码下沉到基座并在基" opacity="0.5" font-family="PingFangSC-Regular, PingFang SC" font-size="14" font-weight="normal" line-spacing="24" fill="#FFFFFF">
                    <tspan x="65" y="179">支持低成本将业务公共代码下沉到基座并</tspan>
                    <tspan x="65" y="203">在基座上长出各种轻薄的功能模块，从而</tspan>
                    <tspan x="65" y="227">让组织分工更加合理、需求交付更加高效</tspan>
                </text>
            </g>
            <g id="编组-33备份-3" transform="translate(939.000000, 2008.000000)">
                <path d="M16,0 L365,0 C373.836556,-1.623249e-15 381,7.163444 381,16 L381,248 C381,256.836556 373.836556,264 365,264 L16,264 C7.163444,264 1.082166e-15,256.836556 0,248 L0,16 C-1.082166e-15,7.163444 7.163444,1.623249e-15 16,0 Z" id="矩形备份-8" fill="url(#linearGradient-rcmrlfv22p-1)"></path>
                <g id="椭圆形">
                    <use fill="black" fill-opacity="1" filter="url(#filter-rcmrlfv22p-30)" xlink:href="#path-rcmrlfv22p-29"></use>
                    <use fill="url(#linearGradient-rcmrlfv22p-2)" fill-rule="evenodd" xlink:href="#path-rcmrlfv22p-29"></use>
                    <use fill="black" fill-opacity="1" filter="url(#filter-rcmrlfv22p-31)" xlink:href="#path-rcmrlfv22p-29"></use>
                </g>
                <g id="编组-34" transform="translate(175.000000, 48.000000)">
                    <rect id="矩形" x="0" y="0" width="32" height="32"></rect>
                    <g id="形状" transform="translate(0.666667, 1.333333)">
                        <use fill="black" fill-opacity="1" filter="url(#filter-rcmrlfv22p-34)" xlink:href="#path-rcmrlfv22p-33"></use>
                        <use fill="url(#linearGradient-rcmrlfv22p-32)" fill-rule="evenodd" xlink:href="#path-rcmrlfv22p-33"></use>
                    </g>
                </g>
                <text id="微服务演进成本高" opacity="0.95" font-family="AlibabaPuHuiTiM, Alibaba PuHuiTi" font-size="24" font-weight="400" line-spacing="32" fill="#FFFFFF">
                    <tspan x="96" y="145">微服务演进成本高</tspan>
                </text>
                <text id="支持业务架构低成本地在单体应用、多模块、" opacity="0.5" font-family="PingFangSC-Regular, PingFang SC" font-size="14" font-weight="normal" line-spacing="24" fill="#FFFFFF">
                    <tspan x="65" y="179">支持业务架构低成本地在单体应用、多模</tspan>
                    <tspan x="65" y="203">块、独立微服务应用之间来回切换，从而</tspan>
                    <tspan x="65" y="227">轻松让应用架构与业务发展保持及时同步</tspan>
                </text>
            </g>
        </g>
    </g>
</svg>